<svg xmlns="http://www.w3.org/2000/svg" viewBox="0 0 251.94 251.94"><defs><style>.cls-1{fill:#0389ff;}.cls-2{fill:#fff;}</style></defs><title>Asset 12</title><g id="Layer_2" data-name="Layer 2"><g id="_3" data-name="3"><path class="cls-1" d="M126.12,9a4.56,4.56,0,0,1,4.49,4.49v225a4.56,4.56,0,0,1-4.49,4.5h-.3a4.55,4.55,0,0,1-4.49-4.5V13.49A4.55,4.55,0,0,1,125.82,9h.3m0-9h-.3a13.53,13.53,0,0,0-13.49,13.49v225a13.53,13.53,0,0,0,13.49,13.5h.3a13.53,13.53,0,0,0,13.49-13.5V13.49A13.53,13.53,0,0,0,126.12,0Z"/><path class="cls-1" d="M126.12,9a4.56,4.56,0,0,1,4.49,4.49v225a4.56,4.56,0,0,1-4.49,4.5h-.3a4.55,4.55,0,0,1-4.49-4.5V13.49A4.55,4.55,0,0,1,125.82,9h.3m0-9h-.3a13.53,13.53,0,0,0-13.49,13.49v225a13.53,13.53,0,0,0,13.49,13.5h.3a13.53,13.53,0,0,0,13.49-13.5V13.49A13.53,13.53,0,0,0,126.12,0Z"/><path class="cls-1" d="M46.54,41.85a4.49,4.49,0,0,1,3.18,1.3L208.78,202.22a4.53,4.53,0,0,1,0,6.35l-.21.21a4.53,4.53,0,0,1-6.35,0L43.15,49.72a4.53,4.53,0,0,1,0-6.35l.21-.22a4.5,4.5,0,0,1,3.18-1.3m0-9A13.46,13.46,0,0,0,37,36.79l-.21.21a13.53,13.53,0,0,0,0,19.08L195.86,215.15a13.54,13.54,0,0,0,19.08,0l.21-.21a13.53,13.53,0,0,0,0-19.08L56.08,36.79a13.46,13.46,0,0,0-9.54-3.94Z"/><path class="cls-1" d="M238.44,121.33a4.55,4.55,0,0,1,4.5,4.49v.3a4.56,4.56,0,0,1-4.5,4.49H13.49A4.56,4.56,0,0,1,9,126.12v-.3a4.55,4.55,0,0,1,4.49-4.49h225m0-9H13.49A13.53,13.53,0,0,0,0,125.82v.3a13.53,13.53,0,0,0,13.49,13.49h225a13.53,13.53,0,0,0,13.5-13.49v-.3a13.53,13.53,0,0,0-13.5-13.49Z"/><path class="cls-1" d="M205.4,41.85a4.44,4.44,0,0,1,3.17,1.31l.21.2a4.54,4.54,0,0,1,0,6.36L49.72,208.78a4.54,4.54,0,0,1-6.36,0l-.21-.21a4.53,4.53,0,0,1,0-6.35L202.22,43.15a4.49,4.49,0,0,1,3.18-1.3m0-9a13.46,13.46,0,0,0-9.54,3.94L36.79,195.86a13.53,13.53,0,0,0,0,19.08l.21.21a13.54,13.54,0,0,0,19.08,0L215.15,56.08a13.53,13.53,0,0,0,0-19.08l-.21-.21a13.48,13.48,0,0,0-9.54-3.94Z"/><path class="cls-2" d="M126,220.88A94.91,94.91,0,1,1,220.88,126,95,95,0,0,1,126,220.88Zm0-154.33A59.42,59.42,0,1,0,185.39,126,59.49,59.49,0,0,0,126,66.55Z"/><path class="cls-1" d="M126,35.56A90.41,90.41,0,1,1,35.56,126,90.52,90.52,0,0,1,126,35.56m0,154.33A63.92,63.92,0,1,0,62.05,126,64,64,0,0,0,126,189.89m0-163.33A99.41,99.41,0,1,0,225.38,126,99.41,99.41,0,0,0,126,26.56Zm0,154.33A54.92,54.92,0,1,1,180.89,126,54.92,54.92,0,0,1,126,180.89Z"/><path class="cls-2" d="M126,145a19,19,0,1,1,19-19A19,19,0,0,1,126,145Z"/><path class="cls-1" d="M126,111.48A14.49,14.49,0,1,1,111.48,126,14.5,14.5,0,0,1,126,111.48m0-9A23.49,23.49,0,1,0,149.45,126,23.49,23.49,0,0,0,126,102.48Z"/></g></g></svg>