<?xml version="1.0" encoding="utf-8"?>
<!-- Generator: Adobe Illustrator 23.0.0, SVG Export Plug-In . SVG Version: 6.00 Build 0)  -->
<svg version="1.1" id="Layer_1" xmlns="http://www.w3.org/2000/svg" xmlns:xlink="http://www.w3.org/1999/xlink" x="0px" y="0px"
	 viewBox="0 0 3282.7 3227.9" style="enable-background:new 0 0 3282.7 3227.9;" xml:space="preserve">
<style type="text/css">
	.st0{fill:#0389FF;}
	.st1{fill:#FFCD52;}
	.st2{fill:#172965;}
	.st3{fill:#F6F6F6;stroke:#172965;stroke-width:30;stroke-linecap:round;stroke-miterlimit:10;}
	.st4{fill:#FDFDFD;}
	.st5{fill:none;}
	.st6{fill:#FFFFFF;}
	.st7{clip-path:url(#XMLID_4_);fill:none;stroke:#172965;stroke-width:10;stroke-miterlimit:10;}
	.st8{fill:#036BFF;}
	.st9{fill:none;stroke:#172965;stroke-width:20;stroke-linecap:round;stroke-miterlimit:10;}
	.st10{fill:#172965;stroke:#FDFDFD;stroke-width:10;stroke-linecap:round;stroke-miterlimit:10;}
	.st11{fill:none;stroke:#FDFDFD;stroke-width:10;stroke-linecap:round;stroke-miterlimit:10;}
</style>
<g>
	<path class="st0" d="M3241.2,2193.5h-1752l244.7-631h1498.8c4.7,0,8.5,3.8,8.5,8.5V2193.5z"/>
	<circle class="st1" cx="2364.8" cy="689.8" r="689.8"/>
	<rect x="2376.7" y="1694.5" class="st2" width="906" height="21.1"/>
	<g>
		<rect x="2417.9" y="1707.4" class="st2" width="21.8" height="138.3"/>
		<rect x="2551.5" y="1707.4" class="st2" width="21.8" height="138.3"/>
		<rect x="2685.2" y="1707.4" class="st2" width="21.8" height="138.3"/>
		<rect x="2818.8" y="1707.4" class="st2" width="21.8" height="138.3"/>
		<rect x="2952.4" y="1707.4" class="st2" width="21.8" height="138.3"/>
		<rect x="3086" y="1707.4" class="st2" width="21.8" height="138.3"/>
		<rect x="3219.6" y="1707.4" class="st2" width="21.8" height="138.3"/>
	</g>
	<g>
		<line class="st3" x1="1320.5" y1="1823.5" x2="1202.3" y2="1657.5"/>
	</g>
	<path class="st2" d="M289.7,2127.5h2952.7v159.4c0,217.2-159.7,393.3-356.6,393.3H635.3c-2.9,0-5.6-1.5-7.1-3.9l-345.6-535.7
		C278.9,2135,282.9,2127.5,289.7,2127.5z"/>
	<path class="st2" d="M2737.7,3048.6H642c-8.1,0-15.3-4.8-18.5-12.3l-405.3-881c-5.5-13.2,4.2-27.7,18.5-27.7h3001v421
		C3237.7,2824.7,3013.8,3048.6,2737.7,3048.6z"/>
	<path class="st2" d="M2184.8,2128.9l241.3-303.1c1.6-2,4.1-3.2,6.7-3.2H3233c4.7,0,8.5,3.8,8.5,8.5v299.3
		C3241.6,2130.3,2183.4,2128.9,2184.8,2128.9z"/>
	<path class="st2" d="M1915.5,57.5h16.7c4.7,0,8.5,3.8,8.5,8.5v2076.2c0,4.7-3.8,8.5-8.5,8.5h-16.7c-4.7,0-8.5-3.8-8.5-8.5V66
		C1907,61.3,1910.8,57.5,1915.5,57.5z"/>
	<g>
		<path class="st4" d="M2153.1,546.4c-148.8,0-297.6,0-446.4,0c-107.2-107.2-107.2-281.1,0-388.4c148.8,0,297.6,0,446.4,0
			C2045.8,265.3,2045.8,439.2,2153.1,546.4z"/>
	</g>
	<g id="XMLID_2_">
		<path class="st4" d="M2567.9,1739.8c-413,0-825.9,0-1238.9,0c-297.6-297.6-297.6-780.2,0-1077.8c413,0,825.9,0,1238.9,0
			C2270.3,959.6,2270.3,1442.1,2567.9,1739.8z"/>
	</g>
	<path class="st2" d="M2006.8,2131.2h-165.9v-253.8c0-4.7,3.8-8.5,8.5-8.5h148.9c4.7,0,8.5,3.8,8.5,8.5V2131.2z"/>
	<path class="st2" d="M2055.5,2128h-263.2v-22.5c0-4.7,3.8-8.5,8.5-8.5H2047c4.7,0,8.5,3.8,8.5,8.5V2128z"/>
	<path class="st0" d="M1027.6,2800.4"/>
	<g>
		<path class="st5" d="M851.7,2398v136.5h136.5c0,0,0,0,0,0C988.2,2459.2,927.1,2398,851.7,2398z"/>
		<path class="st5" d="M851.7,2671.1c75.4,0,136.5-61.1,136.5-136.5H851.7V2671.1z"/>
		<path class="st5" d="M851.7,2398c-75.4,0-136.5,61.1-136.5,136.5c0,0,0,0,0,0h136.5V2398z"/>
		<path class="st5" d="M715.2,2534.6c0,75.4,61.1,136.5,136.5,136.5v-136.5H715.2z"/>
		<path class="st0" d="M988.2,2534.6c0,75.4-61.1,136.5-136.5,136.5V2812c153.2,0,277.4-124.2,277.4-277.4H988.2z"/>
		<path class="st6" d="M715.2,2534.6H574.2c0,153.2,124.2,277.4,277.4,277.4v-140.9C776.3,2671.1,715.2,2610,715.2,2534.6z"/>
		<path class="st6" d="M988.2,2534.6C988.2,2534.6,988.2,2534.6,988.2,2534.6l140.9,0c0,0,0,0,0,0c0-153.2-124.2-277.4-277.4-277.4
			V2398C927.1,2398,988.2,2459.2,988.2,2534.6z"/>
		<path class="st0" d="M715.2,2534.6c0-75.4,61.1-136.5,136.5-136.5v-140.9c-153.2,0-277.4,124.2-277.4,277.4c0,0,0,0,0,0
			L715.2,2534.6C715.2,2534.6,715.2,2534.6,715.2,2534.6z"/>
	</g>
	<g>
		<rect x="895.5" y="1546.8" class="st0" width="129.3" height="582.9"/>
		<rect x="1051.9" y="1611.4" class="st0" width="129.3" height="518.2"/>
		<g>
			<defs>
				<ellipse id="XMLID_1_" cx="1054.4" cy="1443.4" rx="202.7" ry="235"/>
			</defs>
			<use xlink:href="#XMLID_1_"  style="overflow:visible;fill:#0389FF;"/>
			<clipPath id="XMLID_4_">
				<use xlink:href="#XMLID_1_"  style="overflow:visible;"/>
			</clipPath>
			<line class="st7" x1="1222.4" y1="1589.2" x2="1149.3" y2="1397.9"/>
		</g>
		<circle class="st0" cx="1041.2" cy="1127.9" r="161.6"/>
		<g>
			<circle class="st2" cx="1077.1" cy="1071.8" r="16.4"/>
			<path class="st6" d="M1026.5,1147.6c9,0,16.4-7.3,16.4-16.4v-49.6c0-9-7.3-16.4-16.4-16.4c-9,0-16.4,7.3-16.4,16.4v49.6
				C1010.1,1140.2,1017.4,1147.6,1026.5,1147.6z"/>
			<circle class="st2" cx="975.2" cy="1071.8" r="16.4"/>
			<path class="st8" d="M958.8,1112.9c0-9,7.3-16.3,16.3-16.4c0,0,0,0,0,0C966.1,1096.5,958.8,1103.8,958.8,1112.9l-0.1,38
				c0,0.3,0,0.6,0,1v0.3c0,0.1,0,0.2,0,0.3c0,0.3,0,0.6,0,0.9c0-0.4,0-0.7,0-1.1V1112.9z"/>
			<path class="st2" d="M1093.5,1149.7v-13c0-9-7.3-16.4-16.4-16.4c-1.2,0-2.4,0.1-3.6,0.4c-7.3,1.6-12.8,8.1-12.8,16h-0.1v15.5
				c0,18.1-16,32.8-34.2,32.8c-18.1,0-34.9-14.7-34.9-32.8l0,0.3c0-0.6,0-1.1,0-1.7v-14.2h0c0-7.8-5.5-14.3-12.8-16
				c-1.1-0.3-2.3-0.4-3.6-0.4c-9,0-16.3,7.3-16.3,16.4v15.6c0,0.4,0,0.7,0,1.1c0,0.2,0,0.3,0,0.5c0,0.1,0,0.1,0,0.2
				c0,0.2,0,0.4,0,0.6c0,0,0,0.1,0,0.1c1.4,35.1,32.2,63.1,67.6,63.1c36.3,0,67-29.4,67-65.7
				C1093.6,1151.4,1093.6,1150.5,1093.5,1149.7z"/>
		</g>
		<path class="st0" d="M752.7,1400.7l15.2-5c22.9-7.5,35.4-32.1,28-55l-67.7-207.8l-98.2,32l67.7,207.8
			C705.2,1395.6,729.8,1408.2,752.7,1400.7z"/>
		<path class="st0" d="M963.2,1332.8l-32-98.2l-207.8,67.7c-22.9,7.5-35.4,32.1-28,55l5,15.2c7.5,22.9,32.1,35.4,55,28L963.2,1332.8
			z"/>
		<polygon class="st0" points="1236.2,1345.9 1144.5,1384.9 1264.6,1691.6 1360.4,1652.8 		"/>
		<circle class="st0" cx="687.7" cy="1115.7" r="74.5"/>
		<circle class="st0" cx="1292" cy="1681" r="74.5"/>
		<path class="st0" d="M722.7,1152l-6.2-6.3c-9.4-9.5-9.3-24.9,0.2-34.3l62.5-61.7c9.5-9.4,24.9-9.3,34.3,0.2l6.2,6.3
			c9.4,9.5,9.3,24.9-0.2,34.3l-62.5,61.7C747.5,1161.6,732.1,1161.5,722.7,1152z"/>
		<path class="st0" d="M832.5,2105.2v-8.9c0-13.4,10.8-24.2,24.2-24.2h145.1c13.4,0,24.2,10.8,24.2,24.2v8.9
			c0,13.4-10.8,24.2-24.2,24.2H856.7C843.4,2129.4,832.5,2118.6,832.5,2105.2z"/>
		<path class="st0" d="M1053.2,2105.2v-8.9c0-13.4,10.8-24.2,24.2-24.2h145.1c13.4,0,24.2,10.8,24.2,24.2v8.9
			c0,13.4-10.8,24.2-24.2,24.2h-145.1C1064.1,2129.4,1053.2,2118.6,1053.2,2105.2z"/>
		<path class="st0" d="M707.5,1129.9l-8.6-2.1c-13-3.1-21.1-16.2-18-29.2L707.7,986c3.1-13,16.2-21.1,29.2-18l8.6,2.1
			c13,3.1,21.1,16.2,18,29.2l-26.8,112.7C733.6,1125,720.5,1133,707.5,1129.9z"/>
		<path class="st0" d="M676.2,1099.8l-8.8,1.1c-13.3,1.6-25.4-7.8-27-21.1l-10.6-87.1c-1.6-13.3,7.8-25.4,21.1-27l8.8-1.1
			c13.3-1.6,25.4,7.8,27,21.1l10.6,87.1C698.9,1086.1,689.4,1098.2,676.2,1099.8z"/>
		<path class="st0" d="M653.1,1139.2l-7.9,4c-11.9,6.1-26.5,1.4-32.6-10.6l-39.9-78.2c-6.1-11.9-1.4-26.5,10.6-32.6l7.9-4
			c11.9-6.1,26.5-1.4,32.6,10.6l39.9,78.2C669.8,1118.5,665,1133.1,653.1,1139.2z"/>
	</g>
	<rect x="218.7" y="1996.6" class="st2" width="2096" height="20"/>
	<g>
		<rect x="287.3" y="2009.6" class="st2" width="21.8" height="138.3"/>
		<rect x="421" y="2009.6" class="st2" width="21.8" height="138.3"/>
		<rect x="554.6" y="2009.6" class="st2" width="21.8" height="138.3"/>
		<rect x="688.2" y="2009.6" class="st2" width="21.8" height="138.3"/>
		<rect x="821.8" y="2009.6" class="st2" width="21.8" height="138.3"/>
		<rect x="955.4" y="2009.6" class="st2" width="21.8" height="138.3"/>
		<rect x="1089" y="2009.6" class="st2" width="21.8" height="138.3"/>
		<rect x="1222.6" y="2009.6" class="st2" width="21.8" height="138.3"/>
		<rect x="1356.3" y="2009.6" class="st2" width="21.8" height="138.3"/>
		<rect x="1489.9" y="2009.6" class="st2" width="21.8" height="138.3"/>
		<rect x="1623.5" y="2009.6" class="st2" width="21.8" height="138.3"/>
		<rect x="1757.1" y="2009.6" class="st2" width="21.8" height="138.3"/>
		<rect x="1890.7" y="2009.6" class="st2" width="21.8" height="138.3"/>
		<rect x="2024.3" y="2009.6" class="st2" width="21.8" height="138.3"/>
		<rect x="2157.9" y="2009.6" class="st2" width="21.8" height="138.3"/>
	</g>
	<path class="st3" d="M1197.6,1655.4"/>
	<line class="st3" x1="1268.6" y1="1687.2" x2="1197.6" y2="1655.4"/>
	<path class="st9" d="M1204.7,1658.8c0,0-371.9-538.2-1194.7-467.9"/>
	<line class="st10" x1="99.3" y1="1194" x2="99.3" y2="3222.9"/>
	<path class="st11" d="M101.1,1194c0,0,111.1,86.1,287.8,20.4"/>
	<path class="st11" d="M388.9,1215.5c0,0,104.9,126.1,279.6,71.3"/>
	<path class="st11" d="M667,1285.8c0,0,74.1,143.5,257,135.1"/>
</g>
</svg>
