<svg width="35" height="35" viewBox="0 0 35 35" fill="none" xmlns="http://www.w3.org/2000/svg">
<path d="M22.9028 35C29.5288 35 34.9003 29.6274 34.9003 23C34.9003 16.3726 29.5288 11 22.9028 11C16.2767 11 10.9053 16.3726 10.9053 23C10.9053 29.6274 16.2767 35 22.9028 35Z" fill="#0389FF"/>
<path d="M13.7605 18.4771L0.141602 5.19818L3.36708 2.05322L16.986 15.3321C19.8929 18.5548 25.1811 24.9534 23.0786 24.7671C20.976 24.5807 15.9905 20.4961 13.7605 18.4771Z" fill="#172965"/>
<path d="M17.1066 11.2811L3.48768 24.5601L0.262207 21.4151L13.8811 8.13617C17.1863 5.30182 23.7487 0.145637 23.5576 2.19572C23.3665 4.2458 19.1773 9.10686 17.1066 11.2811Z" fill="#172965"/>
</svg>
