<svg width="48" height="48" viewBox="0 0 48 48" fill="none" xmlns="http://www.w3.org/2000/svg">
<path d="M24.0676 -0.000354348C37.2543 0.0435526 48.0237 10.8617 47.9993 24.0362C47.9749 37.2644 37.0811 48.0801 23.87 47.9972C10.6809 47.9143 -0.0641183 37.0644 -0.000697247 23.8972C0.0651631 10.7129 10.898 -0.0442613 24.0676 -0.000354348ZM11.5273 22.1921C10.1759 23.5142 8.97095 24.6924 7.90986 25.7315C11.4858 29.327 15.0813 32.942 18.5622 36.4448C25.7214 29.2904 32.9563 22.0629 40.0668 14.9548C38.9472 13.8279 37.7617 12.6375 36.464 11.3325C30.5463 17.2624 24.5555 23.2679 18.5475 29.2929C16.1692 26.8853 13.8056 24.4948 11.5273 22.1921Z" fill="white"/>
</svg>
