<?xml version="1.0" encoding="utf-8"?>
<!-- Generator: Adobe Illustrator 23.0.0, SVG Export Plug-In . SVG Version: 6.00 Build 0)  -->
<svg version="1.1" xmlns="http://www.w3.org/2000/svg" xmlns:xlink="http://www.w3.org/1999/xlink" x="0px" y="0px"
	 viewBox="0 0 1280 1024" style="enable-background:new 0 0 1280 1024;" xml:space="preserve">
<style type="text/css">
	.st0{fill:url(#SVGID_1_);}
	.st1{fill:url(#SVGID_2_);}
	.st2{fill:#172965;}
	.st3{fill:#F6F6F6;}
	.st4{fill:#0389FF;}
	.st5{fill:#FFCD52;}
	.st6{fill:#FFFFFF;}
</style>
<g id="light">
	
		<linearGradient id="SVGID_1_" gradientUnits="userSpaceOnUse" x1="9601.0244" y1="228.0712" x2="10326.752" y2="228.0712" gradientTransform="matrix(-1 0 0 1 10331.7998 0)">
		<stop  offset="0" style="stop-color:#FFCD52"/>
		<stop  offset="0.9955" style="stop-color:#FFCD52;stop-opacity:0"/>
	</linearGradient>
	<polygon class="st0" points="730.8,228.1 5,350.3 5,105.9 	"/>
	
		<linearGradient id="SVGID_2_" gradientUnits="userSpaceOnUse" x1="1420.9073" y1="9804.0713" x2="2146.635" y2="9804.0713" gradientTransform="matrix(1 0 0 -1 -869.8855 10032.1426)">
		<stop  offset="0" style="stop-color:#FFCD52"/>
		<stop  offset="0.9955" style="stop-color:#FFCD52;stop-opacity:0"/>
	</linearGradient>
	<polygon class="st1" points="551,228.1 1276.7,105.9 1276.7,350.3 	"/>
</g>
<g id="Layer_1">
	<g>
		<polygon class="st2" points="526.6,175.1 722.9,175.1 727.9,389.4 521.6,389.4 		"/>
		<polygon class="st2" points="741.5,975.1 508,975.1 521.3,400.8 728.1,400.8 		"/>
		<g>
			<rect x="776.7" y="350.5" class="st3" width="11.7" height="114.3"/>
			<rect x="461" y="350.6" class="st3" width="11.7" height="114.3"/>
			<rect x="697.7" y="350.6" class="st4" width="11.7" height="114.3"/>
			<rect x="618.8" y="350.6" class="st4" width="11.7" height="114.3"/>
			<rect x="539.9" y="350.6" class="st4" width="11.7" height="114.3"/>
		</g>
		
			<rect x="460.9" y="438" transform="matrix(-1 -4.489976e-11 4.489976e-11 -1 1249.4828 912.2969)" class="st3" width="327.6" height="36.3"/>
		
			<rect x="460.9" y="938.6" transform="matrix(-1 -4.490509e-11 4.490509e-11 -1 1249.4828 1913.5164)" class="st2" width="327.6" height="36.3"/>
		<g>
			<polygon class="st2" points="521.7,511.9 727.8,511.9 788.4,474.5 461.1,474.5 			"/>
		</g>
		<path class="st2" d="M722.8,146.8c0-54.1-43.8-97.9-97.9-97.9c-54.1,0-97.9,43.8-97.9,97.9H722.8z"/>
		
			<rect x="542.7" y="178.7" transform="matrix(-1 -4.492685e-11 4.492685e-11 -1 1249.7782 463.9562)" class="st5" width="164.3" height="106.6"/>
		<path class="st2" d="M515.2,312.9h221c9.8,0,17.8-8,17.8-17.8v0c0-9.8-8-17.8-17.8-17.8h-221c-9.8,0-17.8,8-17.8,17.8v0
			C497.4,304.9,505.4,312.9,515.2,312.9z"/>
		<path class="st2" d="M515.2,178.4h221c9.8,0,17.8-8,17.8-17.8v0c0-9.8-8-17.8-17.8-17.8h-221c-9.8,0-17.8,8-17.8,17.8v0
			C497.4,170.4,505.4,178.4,515.2,178.4z"/>
		<g>
			<rect x="710.5" y="166.1" class="st2" width="11.7" height="114.3"/>
			<rect x="664.8" y="166.1" class="st2" width="11.7" height="114.3"/>
			<rect x="619.1" y="166.1" class="st2" width="11.7" height="114.3"/>
			<rect x="573.4" y="166.1" class="st2" width="11.7" height="114.3"/>
			<rect x="527.6" y="166.1" class="st2" width="11.7" height="114.3"/>
		</g>
		
			<rect x="619.3" y="145.3" transform="matrix(-4.533636e-11 1 -1 -4.533636e-11 854.569 -395.7218)" class="st2" width="11.7" height="168.2"/>
		
			<rect x="553.8" y="554.9" transform="matrix(-1 -4.480473e-11 4.480473e-11 -1 1136.8484 1159.0465)" class="st5" width="29.2" height="49.2"/>
		
			<rect x="553.8" y="677.2" transform="matrix(-1 -4.486734e-11 4.486734e-11 -1 1136.8484 1403.5208)" class="st5" width="29.2" height="49.2"/>
		
			<rect x="553.8" y="799.4" transform="matrix(-1 -4.480473e-11 4.480473e-11 -1 1136.8484 1647.995)" class="st5" width="29.2" height="49.2"/>
		<g>
			<polygon class="st6" points="551.5,974.2 558,974.2 586.2,846 579.6,846 			"/>
			<polygon class="st6" points="517.7,974.2 524.2,974.2 552.4,846 545.9,846 			"/>
			<g>
				<polygon class="st6" points="547.3,862.4 579.2,862.4 580.4,857.1 548.5,857.1 				"/>
				<polygon class="st6" points="543,881.9 574.9,881.9 576.1,876.7 544.2,876.7 				"/>
				<polygon class="st6" points="538.7,901.5 570.6,901.5 571.8,896.2 539.9,896.2 				"/>
				<polygon class="st6" points="534.4,921 566.4,921 567.5,915.7 535.6,915.7 				"/>
				<polygon class="st6" points="530.1,940.5 562.1,940.5 563.2,935.2 531.3,935.2 				"/>
				<polygon class="st6" points="525.9,960 557.8,960 558.9,954.8 527,954.8 				"/>
			</g>
		</g>
		<g>
			<polygon class="st3" points="470.5,389.4 521.6,389.4 521.3,400.8 470.5,400.8 			"/>
			<polygon class="st3" points="779.8,389.4 779.8,400.8 728.1,400.8 727.9,389.4 			"/>
			<polygon class="st4" points="727.9,389.4 728.1,400.8 521.3,400.8 521.6,389.4 			"/>
		</g>
	</g>
</g>
</svg>
