<svg xmlns="http://www.w3.org/2000/svg" viewBox="0 0 893.98 318.1"><defs><style>.cls-1{opacity:0.8;}.cls-2{fill:#17344a;}.cls-3{fill:#172965;}.cls-4{fill:#0389ff;}.cls-5{fill:#036bff;}</style></defs><title>GilJOB</title><g id="Layer_5" data-name="Layer 5"><g class="cls-1"><path class="cls-2" d="M758.29,61.07h2.13a13.49,13.49,0,0,0-.2-2.53C759.54,59.38,758.89,60.23,758.29,61.07Z"/></g><g class="cls-1"><path class="cls-2" d="M760.5,61.07h-.08a6.11,6.11,0,0,1,.08,1.21Z"/></g><path class="cls-3" d="M581.65,34.84A96.34,96.34,0,1,0,678,131.17,96.33,96.33,0,0,0,581.65,34.84Zm0,137.35a41,41,0,1,1,41-41A41,41,0,0,1,581.65,172.19Z"/><path class="cls-3" d="M850.1,112.5a62.7,62.7,0,0,0,2-15.84,61.76,61.76,0,0,0-55-61.41,54.58,54.58,0,0,0-6.8-.4H732.87a27.31,27.31,0,0,0-27.18,26.22,6.11,6.11,0,0,0-.08,1.21V199.85a27.43,27.43,0,0,0,21.83,26.86c.49.08.93.16,1.41.2h84.77c1.37.12,2.82.16,4.23.16A61.83,61.83,0,0,0,850.1,112.5ZM782.62,89.74a3.88,3.88,0,0,1,.68,0,4.53,4.53,0,0,1,.73,0,13.81,13.81,0,0,1,13.07,13.68v0a12.59,12.59,0,0,1-.53,3.7,13.78,13.78,0,0,1-13.27,10c-.48,0-.92,0-1.41-.08H760.5V89.66h21.84v.08ZM758.29,61.07c.6-.84,1.25-1.69,1.93-2.53a13.49,13.49,0,0,1,.2,2.53h.08v1.21a6.11,6.11,0,0,0-.08-1.21Zm56,111a11.19,11.19,0,0,1-1.65.32v0h-.4c-.45,0-.93.08-1.41.08s-1,0-1.41-.08H760.5v-27.5h52.16v.2a12.82,12.82,0,0,1,5.19,1.81,13.26,13.26,0,0,1,3.66,3.13,13.5,13.5,0,0,1,3.09,8.69A13.77,13.77,0,0,1,814.31,172Z"/><circle class="cls-3" cx="430.26" cy="62.41" r="27.44"/><g class="cls-1"><path class="cls-2" d="M705.61,52.23v1.2a6.05,6.05,0,0,1,.08-1.2Z"/></g><path class="cls-3" d="M286.94,197.65a27.52,27.52,0,0,1-54.81,3.62c0-.75-.06-1.48-.1-2.21,0,.27,0,.55,0,.82,1.36,59.52,53.48,107.37,113.4,107.37,60.77,0,112.35-49.3,112.35-110.06,0-1.45,0-2.86-.12-4.27V131.19a27.41,27.41,0,0,0-27.43-27.42,26.34,26.34,0,0,0-5.95.68,27.34,27.34,0,0,0-21.47,26.74h-.13v66c0,30.36-26.89,55-57.29,55S287,227.51,287,197.15"/><path class="cls-4" d="M344.8,221.45A27.41,27.41,0,0,0,372.23,194V62.3a27.45,27.45,0,1,0-54.89,0V194A27.44,27.44,0,0,0,344.8,221.45Z"/><circle class="cls-4" cx="259.41" cy="62.33" r="27.44"/><path class="cls-4" d="M190.47,117.53l-68.68,0a13.83,13.83,0,1,0,0,27.66h25.13a41.36,41.36,0,1,1-7.72-41.06,27.73,27.73,0,0,0,36.6-41.34c-.85-.88-1.73-1.72-2.62-2.53,0,0-.08,0-.12-.08A96.32,96.32,0,0,0,11.88,137.39c3,48.5,42.95,87.71,91.49,90a96.27,96.27,0,0,0,101-96.19V131A13.72,13.72,0,0,0,190.47,117.53Z"/><path class="cls-5" d="M232,131.19a27.41,27.41,0,0,1,27.37-27.42h0a27.4,27.4,0,0,0-27.42,27.42v63.68c0,.53,0,1.09,0,1.65V197a2.55,2.55,0,0,0,0,.53c0,.5,0,1,.06,1.49,0-.63-.05-1.26-.05-1.87Z"/><path class="cls-4" d="M259.39,225.19a27.56,27.56,0,0,0,27.55-27.54c0-.93-.08-1.85-.08-2.82V131.19h-.08a27.39,27.39,0,0,0-21.44-26.74,26.62,26.62,0,0,0-6-.68A27.41,27.41,0,0,0,232,131.19v66c0,.61,0,1.24.05,1.87s.07,1.46.1,2.21A27.54,27.54,0,0,0,259.39,225.19Z"/></g></svg>