<svg xmlns="http://www.w3.org/2000/svg" viewBox="0 0 395 395"><defs><style>.cls-1{fill:#6e13d4;}.cls-2,.cls-3{fill:#fff;}.cls-2{stroke:#6e13d4;stroke-miterlimit:10;stroke-width:20px;}</style></defs><title>Lv5</title><g id="Layer_2" data-name="Layer 2"><g id="All"><circle class="cls-1" cx="197.5" cy="197.5" r="197.5"/><polygon class="cls-2" points="256.11 152.89 236.82 98.89 82.53 98.89 82.53 161.89 256.11 152.89"/><polygon class="cls-2" points="305.61 197.89 285.04 134.89 53.61 134.89 53.61 215.89 305.61 197.89"/><path class="cls-3" d="M122,297.89a61.68,61.68,0,0,1-55.63-35.28l-27.77-48.1-.19-.41A15,15,0,0,1,52,192.8l1,0,141.4.24h18.18l141.39-.24c.32,0,.65,0,1,0a15,15,0,0,1,7.7,2.13,14.48,14.48,0,0,1,6.95,11,15.1,15.1,0,0,1-4.67,12.55l-5.33,5-.3.24c-.39.31-39.85,32.22-49.7,63.63a15,15,0,0,1-14.32,10.56Z"/><path class="cls-1" d="M354.87,202.8a4.93,4.93,0,0,1,2.54.7,4.86,4.86,0,0,1,.61,7.67l-5,4.72s-42.09,33.67-53,68.44a5,5,0,0,1-4.78,3.56H122A51.53,51.53,0,0,1,75.2,258L47.44,209.9A5,5,0,0,1,52,202.8l.56,0,141.79.24h18.21l141.79-.24a5.25,5.25,0,0,1,.56,0m0-20c-.42,0-.83,0-1.25,0l-141.14.24H194.31l-141.1-.24c-.42,0-.83,0-1.25,0a25,25,0,0,0-22.67,35.49l.38.82.45.79,27.35,47.36A71.71,71.71,0,0,0,122,307.89H295.2a24.92,24.92,0,0,0,23.86-17.57c7.45-23.75,36-50.51,46.41-58.82l.6-.48.57-.53,5-4.71a25.17,25.17,0,0,0,7.79-20.9,24.42,24.42,0,0,0-11.73-18.51,24.91,24.91,0,0,0-12.87-3.57Z"/><rect class="cls-1" x="98.61" y="161.89" width="9" height="27"/><rect class="cls-1" x="116.61" y="161.89" width="9" height="27"/><rect class="cls-1" x="134.61" y="161.89" width="9" height="27"/><rect class="cls-1" x="152.61" y="161.89" width="9" height="27"/><rect class="cls-1" x="121.11" y="220.39" width="13.5" height="13.5" rx="6.75"/><rect class="cls-1" x="100.86" y="220.39" width="13.5" height="13.5" rx="6.75"/><rect class="cls-1" x="80.61" y="220.39" width="13.5" height="13.5" rx="6.75"/><path class="cls-2" d="M152.61,62.89h-36c-9,21.6-9,28.8-9,28.8v7.2h54v-7.2S161.61,84.49,152.61,62.89Z"/><path class="cls-1" d="M247.11,161.89h0a13.5,13.5,0,0,1,13.5,13.5v13.5a0,0,0,0,1,0,0h-27a0,0,0,0,1,0,0v-13.5A13.5,13.5,0,0,1,247.11,161.89Z"/></g></g></svg>