<svg xmlns="http://www.w3.org/2000/svg" viewBox="0 0 395 395"><defs><style>.cls-1{fill:#d80808;}.cls-2{fill:#fff;}</style></defs><title>Lv2</title><g id="Layer_2" data-name="Layer 2"><g id="All"><circle class="cls-1" cx="197.5" cy="197.5" r="197.5"/><path class="cls-2" d="M101.53,247.47,261.26,87.75a15,15,0,0,1,21.21,0l5.8,5.8a15,15,0,0,1,0,21.21L128.54,274.49Z"/><path class="cls-1" d="M271.86,93.35a5,5,0,0,1,3.54,1.47l5.8,5.8a5,5,0,0,1,0,7.07L128.54,260.35l-12.87-12.88L268.33,94.82a5,5,0,0,1,3.53-1.47m0-20a24.83,24.83,0,0,0-17.67,7.32L101.53,233.33,87.39,247.47l14.14,14.15,12.87,12.87,14.14,14.14,14.15-14.14L295.34,121.83a25,25,0,0,0,0-35.35l-5.8-5.81a24.84,24.84,0,0,0-17.68-7.32Z"/><path class="cls-2" d="M114.32,279a61.7,61.7,0,0,1-55.84-35.71L30.72,183.24A15,15,0,0,1,44.32,162a14.66,14.66,0,0,1,1.62.09l151.38,16.31L349.6,162a14.64,14.64,0,0,1,1.62-.08,15,15,0,0,1,13.59,21.29l-27.76,60.09A61.69,61.69,0,0,1,281.22,279Z"/><path class="cls-1" d="M351.22,172a5,5,0,0,1,4.52,7.09L328,239.13A51.5,51.5,0,0,1,281.22,269H114.32a51.51,51.51,0,0,1-46.76-29.91L39.8,179.05a5,5,0,0,1,4.52-7.1,5.07,5.07,0,0,1,.55,0l152.45,16.43L350.66,172l.56,0m0-20h0a26.73,26.73,0,0,0-2.68.14l-151.21,16.2L47,152.1a24.57,24.57,0,0,0-2.7-.15,25,25,0,0,0-22.68,35.49L49.4,247.52A71.75,71.75,0,0,0,114.32,289h166.9a71.72,71.72,0,0,0,64.91-41.52l27.76-60.09A25,25,0,0,0,351.22,152Z"/><path class="cls-2" d="M139,334.16a14.91,14.91,0,0,1-10.61-4.39l-24.82-24.83a15,15,0,0,1,0-21.21l49.3-49.3a15,15,0,0,1,20.06-1L311.46,94.83a15,15,0,0,1,21.21,0l5.8,5.8a15,15,0,0,1,0,21.21L199.91,260.4a15,15,0,0,1-1,20.06l-49.3,49.3A14.87,14.87,0,0,1,139,334.16Z"/><path class="cls-1" d="M322.07,100.43a5,5,0,0,1,3.53,1.47l5.8,5.8a5,5,0,0,1,0,7.07l-142,142a5,5,0,0,0,0,7.07l2.44,2.44a5,5,0,0,1,0,7.07l-49.3,49.3a5,5,0,0,1-7.07,0l-24.82-24.82a5,5,0,0,1,0-7.07l49.3-49.3a5,5,0,0,1,7.07,0l2.44,2.44a5,5,0,0,0,7.07,0l142-142a5,5,0,0,1,3.54-1.47m0-20a24.81,24.81,0,0,0-17.68,7.33L171,221.18a25.29,25.29,0,0,0-7.52-1.15,24.81,24.81,0,0,0-17.68,7.33l-49.3,49.3a25,25,0,0,0,0,35.35l24.82,24.82a25,25,0,0,0,35.35,0L206,287.53a25,25,0,0,0,6.16-25.18L345.55,128.91a25,25,0,0,0,0-35.35l-5.81-5.8a24.8,24.8,0,0,0-17.67-7.33Z"/></g></g></svg>