<svg xmlns="http://www.w3.org/2000/svg" viewBox="0 0 395 395"><defs><style>.cls-1{fill:#0843d8;}.cls-2{fill:#fff;}.cls-3{fill:none;stroke:#0843d8;stroke-miterlimit:10;stroke-width:20px;}</style></defs><title>Lv1</title><g id="Layer_2" data-name="Layer 2"><g id="All"><circle class="cls-1" cx="197.5" cy="197.5" r="197.5"/><polygon class="cls-2" points="197.77 98.63 85.32 217.19 310.21 217.19 197.77 98.63"/><line class="cls-3" x1="197.77" y1="73.71" x2="197.77" y2="217.06"/><path class="cls-2" d="M84.57,296.92A15,15,0,0,1,71,288.21L30.72,201.13a15,15,0,0,1,13.6-21.29,14.66,14.66,0,0,1,1.62.09l151.38,16.31L349.6,179.92a14.66,14.66,0,0,1,1.62-.09,15,15,0,0,1,13.59,21.3l-40.23,87.08A15,15,0,0,1,311,296.92Z"/><path class="cls-1" d="M351.22,189.83a5,5,0,0,1,4.52,7.1L315.5,284a5,5,0,0,1-4.54,2.9H84.57A5,5,0,0,1,80,284L39.8,196.94a5,5,0,0,1,4.51-7.1,5.12,5.12,0,0,1,.56,0l151.91,16.37.54,0a4.58,4.58,0,0,0,.53,0l152.81-16.38.56,0m0-20h0a24.07,24.07,0,0,0-2.68.15l-151.21,16.2L47,170c-.9-.09-1.81-.14-2.71-.14a25,25,0,0,0-22.67,35.49l40.24,87.08a25.08,25.08,0,0,0,22.69,14.51H311a25.1,25.1,0,0,0,22.7-14.51l40.23-87.09a25,25,0,0,0-22.67-35.49Z"/></g></g></svg>