<svg xmlns="http://www.w3.org/2000/svg" viewBox="0 0 395 395"><defs><style>.cls-1{fill:#0843d8;}.cls-2{fill:#fff;}</style></defs><title>Lv3</title><g id="Layer_2" data-name="Layer 2"><g id="All"><circle class="cls-1" cx="197.5" cy="197.5" r="197.5"/><path class="cls-2" d="M54,230.86c.2-.91,5-22.63,22.39-52.66,15.84-27.4,45.69-67.45,98-102.65l15.21-10.24V242.38l-138.15.35Z"/><path class="cls-1" d="M179.8,83.65v149l-116.27.29s18-83.16,116.27-149.28M199.33,47,168.9,67.45C65.34,137.15,45.25,225.08,44.44,228.79l-5.15,23.73,24.29-.06,116.27-.29,19.48,0V47Z"/><path class="cls-2" d="M202.8,242.38V63.52L218.61,76a302.05,302.05,0,0,1,83.82,102.78c14.77,29.93,18.87,51.49,19,52.39l2.14,11.58Z"/><path class="cls-1" d="M212.57,83.65c83.89,66.12,99.3,149.28,99.3,149.28l-99.3-.29v-149M193,43.39V252.12l19.47,0,99.3.29,23.55.07-4.29-23.16c-.68-3.69-17.77-91.2-106.41-161.06L193,43.39Z"/><path class="cls-2" d="M116.32,304.3A61.7,61.7,0,0,1,60.68,269l-27.77-48.1-.19-.41a15,15,0,0,1,13.59-21.29c.32,0,.65,0,1,0l131.39.22V19L257.1,64.29,216.87,87.52v112l131.39-.23q.48,0,1,0a15,15,0,0,1,13.59,21.29l-.19.42L334.85,269a61.68,61.68,0,0,1-55.63,35.28Z"/><path class="cls-1" d="M188.67,36.32l18.2,10.51L237.1,64.29,206.87,81.74V209.48l141.79-.24.56,0a5,5,0,0,1,4.52,7.1L326,264.4a51.49,51.49,0,0,1-46.75,29.9H116.32a51.5,51.5,0,0,1-46.76-29.9L41.8,216.31a5,5,0,0,1,4.52-7.09,5.07,5.07,0,0,1,.55,0l141.8.24V36.32m-20-34.64V189.45l-121.1-.2-1.25,0A25,25,0,0,0,23.64,224.7l.38.83.46.78,27.34,47.37a71.73,71.73,0,0,0,64.5,40.62h162.9a71.73,71.73,0,0,0,64.49-40.62l27.35-47.37.45-.79.38-.82a25,25,0,0,0-22.67-35.49l-1.25,0-121.1.21V93.29L247.1,81.61l30-17.32L247.1,47,216.87,29.51,198.67,19l-30-17.32Z"/></g></g></svg>