<svg xmlns="http://www.w3.org/2000/svg" viewBox="0 0 395 395"><defs><style>.cls-1{fill:#0843d8;}.cls-2,.cls-3{fill:#fff;}.cls-2{stroke:#0843d8;stroke-miterlimit:10;stroke-width:20px;}</style></defs><title>Lv4</title><g id="Layer_2" data-name="Layer 2"><g id="All"><circle class="cls-1" cx="197.5" cy="197.5" r="197.5"/><path class="cls-2" d="M303.41,188.33l-67.36-87.56A4.7,4.7,0,0,0,231.26,99L82.18,154.72a5,5,0,0,0-3.77,4.88v64.73h225Z"/><path class="cls-2" d="M175.57,82.2l24,22.88L87.07,155.59V130.15a5,5,0,0,1,3.53-4.82L171,81.07A4.68,4.68,0,0,1,175.57,82.2Z"/><path class="cls-3" d="M82.18,287.37A15,15,0,0,1,69,279.45L54.39,252.26A15,15,0,0,1,62.8,231l128.6-43.52a14.81,14.81,0,0,1,3.21-.71l152.8-16.37a14.52,14.52,0,0,1,1.62-.09,15,15,0,0,1,13.59,21.29l-40.24,87.09a15,15,0,0,1-13.61,8.71Z"/><path class="cls-1" d="M349,180.28a5,5,0,0,1,4.51,7.1l-40.23,87.09a5,5,0,0,1-4.54,2.9H82.18a5,5,0,0,1-4.41-2.64L63.2,247.54a5,5,0,0,1,2.81-7.1L194.6,196.92a5,5,0,0,1,1.07-.24l152.8-16.37a5.25,5.25,0,0,1,.56,0m0-20h0a26.57,26.57,0,0,0-2.68.14L193.54,176.8a24.74,24.74,0,0,0-5.35,1.18L59.59,221.5a25,25,0,0,0-14,35.48l14.57,27.19a25,25,0,0,0,22,13.2H308.77a25.07,25.07,0,0,0,22.69-14.52l40.24-87.08A25,25,0,0,0,349,160.28Z"/><circle class="cls-3" cx="276.41" cy="224.33" r="19"/><path class="cls-1" d="M276.41,215.33a9,9,0,1,1-9,9,9,9,0,0,1,9-9m0-20a29,29,0,1,0,29,29,29,29,0,0,0-29-29Z"/><line class="cls-2" x1="168.41" y1="124.37" x2="195.41" y2="187.37"/></g></g></svg>