<?xml version="1.0" encoding="utf-8"?>
<!-- Generator: Adobe Illustrator 23.0.0, SVG Export Plug-In . SVG Version: 6.00 Build 0)  -->
<svg version="1.1" id="Layer_1" xmlns="http://www.w3.org/2000/svg" xmlns:xlink="http://www.w3.org/1999/xlink" x="0px" y="0px"
	 viewBox="0 0 596 512" style="enable-background:new 0 0 596 512;" xml:space="preserve">
<style type="text/css">
	.st0{fill:#172965;}
	.st1{fill:#F3F3F3;}
	.st2{fill:#DDDDDD;}
	.st3{fill:#FFFFFF;}
	.st4{fill:#0389FF;}
	.st5{fill:#EAEAEA;}
	.st6{fill:#0659FF;}
	.st7{fill:#E2E2E2;}
	.st8{fill:#F6F6F6;}
</style>
<g>
	<g>
		<g>
			<path class="st0" d="M104.1,498.7c0,7.4,5.9,13.3,13.1,13.3h465.7c7.2,0,13.1-5.9,13.1-13.3V196H104.1V498.7z"/>
			<path class="st1" d="M582.9,161.6H117.2c-7.2,0-13.1,5.9-13.1,13.3V196H596v-21.1C596,167.5,590.1,161.6,582.9,161.6z"/>
			<path class="st2" d="M571.8,175.1h-37.2c-2.1,0-3.9,1.8-3.9,3.9c0,2.3,1.8,3.9,3.9,3.9h37.2c2.1,0,3.9-1.8,3.9-3.9
				C575.7,176.9,573.9,175.1,571.8,175.1z"/>
		</g>
		<ellipse class="st0" cx="129" cy="180.1" rx="4.8" ry="5"/>
		<ellipse class="st0" cx="145.1" cy="180.1" rx="4.8" ry="5"/>
		<ellipse class="st0" cx="161.3" cy="180.1" rx="4.8" ry="5"/>
	</g>
	<g>
		<path class="st3" d="M472.3,474.2H22.6C10.1,474.2,0,464.2,0,451.7V22.6C0,10.1,10.1,0,22.6,0h449.7c12.5,0,22.6,10.1,22.6,22.6
			v429.1C494.9,464.2,484.8,474.2,472.3,474.2z"/>
		<path class="st4" d="M152.2,297.7H49.3c-8.3,0-15.1-6.8-15.1-15.1V92.7c0-8.3,6.8-15.1,15.1-15.1h102.9c8.3,0,15.1,6.8,15.1,15.1
			v189.9C167.2,290.9,160.4,297.7,152.2,297.7z"/>
		<path class="st1" d="M448.4,167.4H196.8c-8.3,0-15.1-6.8-15.1-15.1V92.7c0-8.3,6.8-15.1,15.1-15.1h251.6c8.3,0,15.1,6.8,15.1,15.1
			v59.4C463.4,160.6,456.6,167.4,448.4,167.4z"/>
		<path class="st1" d="M448.4,412.4H49.3c-8.3,0-15.1-6.8-15.1-15.1v-70c0-8.3,6.8-15.1,15.1-15.1h398.9c8.3,0,15.1,6.8,15.1,15.1
			v70C463.4,405.6,456.6,412.4,448.4,412.4z"/>
		<path class="st1" d="M300.9,297.7H196.8c-8.3,0-15.1-6.8-15.1-15.1v-85.8c0-8.3,6.8-15.1,15.1-15.1h104.1
			c8.3,0,15.1,6.8,15.1,15.1v85.8C315.9,290.9,309.1,297.7,300.9,297.7z"/>
		<path class="st1" d="M448.4,297.7H344.2c-8.3,0-15.1-6.8-15.1-15.1v-85.8c0-8.3,6.8-15.1,15.1-15.1h104.1
			c8.3,0,15.1,6.8,15.1,15.1v85.8C463.4,290.9,456.6,297.7,448.4,297.7z"/>
		<path class="st5" d="M127,48.8h-19.7c-2.6,0-4.7-2.1-4.7-4.7l0,0c0-2.6,2.1-4.7,4.7-4.7H127c2.6,0,4.7,2.1,4.7,4.7l0,0
			C131.7,46.7,129.6,48.8,127,48.8z"/>
		<path class="st5" d="M219.2,48.8h-43.4c-2.6,0-4.7-2.1-4.7-4.7l0,0c0-2.6,2.1-4.7,4.7-4.7h43.4c2.6,0,4.7,2.1,4.7,4.7l0,0
			C223.7,46.7,221.8,48.8,219.2,48.8z"/>
		<path class="st5" d="M312.6,48.8h-43.4c-2.6,0-4.7-2.1-4.7-4.7l0,0c0-2.6,2.1-4.7,4.7-4.7h43.4c2.6,0,4.7,2.1,4.7,4.7l0,0
			C317.3,46.7,315.2,48.8,312.6,48.8z"/>
		<path class="st6" d="M77,221.2H58.6c-2.6,0-4.7-2.1-4.7-4.7l0,0c0-2.6,2.1-4.7,4.7-4.7H77c2.6,0,4.7,2.1,4.7,4.7l0,0
			C81.7,219.3,79.5,221.2,77,221.2z"/>
		<path class="st6" d="M77,246.4H58.6c-2.6,0-4.7-2.1-4.7-4.7l0,0c0-2.6,2.1-4.7,4.7-4.7H77c2.6,0,4.7,2.1,4.7,4.7l0,0
			C81.7,244.3,79.5,246.4,77,246.4z"/>
		<path class="st6" d="M77,271.4H58.6c-2.6,0-4.7-2.1-4.7-4.7l0,0c0-2.6,2.1-4.7,4.7-4.7H77c2.6,0,4.7,2.1,4.7,4.7l0,0
			C81.7,269.3,79.5,271.4,77,271.4z"/>
		<path class="st6" d="M141.5,221.2h-42c-2.6,0-4.7-2.1-4.7-4.7l0,0c0-2.6,2.1-4.7,4.7-4.7h42.2c2.6,0,4.7,2.1,4.7,4.7l0,0
			C146.1,219.3,144,221.2,141.5,221.2z"/>
		<path class="st6" d="M132,246.4H99.4c-2.6,0-4.7-2.1-4.7-4.7l0,0c0-2.6,2.1-4.7,4.7-4.7H132c2.6,0,4.7,2.1,4.7,4.7l0,0
			C136.5,244.3,134.5,246.4,132,246.4z"/>
		<path class="st6" d="M120.1,271.4H99.4c-2.6,0-4.7-2.1-4.7-4.7l0,0c0-2.6,2.1-4.7,4.7-4.7h20.6c2.6,0,4.7,2.1,4.7,4.7l0,0
			C124.6,269.3,122.6,271.4,120.1,271.4z"/>
		<g>
			<path class="st2" d="M252,102h-47.3c-2.6,0-4.7-2.1-4.7-4.7l0,0c0-2.6,2.1-4.7,4.7-4.7H252c2.6,0,4.7,2.1,4.7,4.7l0,0
				C256.7,100.1,254.6,102,252,102z"/>
			<path class="st5" d="M308.7,121.9h-104c-2.6,0-4.7-2.1-4.7-4.7l0,0c0-2.6,2.1-4.7,4.7-4.7h104c2.6,0,4.7,2.1,4.7,4.7l0,0
				C313.4,119.8,311.3,121.9,308.7,121.9z"/>
			<path class="st5" d="M362.6,121.9h-39.5c-2.6,0-4.7-2.1-4.7-4.7l0,0c0-2.6,2.1-4.7,4.7-4.7h39.5c2.6,0,4.7,2.1,4.7,4.7l0,0
				C367.3,119.8,365.2,121.9,362.6,121.9z"/>
			<path class="st5" d="M437.7,121.9h-60.6c-2.6,0-4.7-2.1-4.7-4.7l0,0c0-2.6,2.1-4.7,4.7-4.7h60.6c2.6,0,4.7,2.1,4.7,4.7l0,0
				C442.3,119.8,440.2,121.9,437.7,121.9z"/>
			<path class="st5" d="M256,137h-51.4c-2.6,0-4.7-2.1-4.7-4.7l0,0c0-2.6,2.1-4.7,4.7-4.7H256c2.6,0,4.7,2.1,4.7,4.7l0,0
				C260.6,135,258.5,137,256,137z"/>
			<path class="st5" d="M289,152.2h-84.2c-2.6,0-4.7-2.1-4.7-4.7l0,0c0-2.6,2.1-4.7,4.7-4.7H289c2.6,0,4.7,2.1,4.7,4.7l0,0
				C293.6,150.1,291.5,152.2,289,152.2z"/>
			<path class="st5" d="M436.5,137H269.2c-2.6,0-4.7-2.1-4.7-4.7l0,0c0-2.6,2.1-4.7,4.7-4.7h167.2c2.6,0,4.7,2.1,4.7,4.7l0,0
				C441,135,438.9,137,436.5,137z"/>
		</g>
		<path class="st5" d="M387.6,48.8h-27.6c-2.6,0-4.7-2.1-4.7-4.7l0,0c0-2.6,2.1-4.7,4.7-4.7h27.6c2.6,0,4.7,2.1,4.7,4.7l0,0
			C392.3,46.7,390.2,48.8,387.6,48.8z"/>
		<path class="st7" d="M423.8,356.4H61.9c-4.7,0-8.6-3.9-8.6-8.6l0,0c0-4.7,3.9-8.6,8.6-8.6h362c4.7,0,8.6,3.9,8.6,8.6l0,0
			C432.4,352.5,428.6,356.4,423.8,356.4z"/>
		<path class="st7" d="M423.8,383.9H61.9c-4.7,0-8.6-3.9-8.6-8.6l0,0c0-4.7,3.9-8.6,8.6-8.6h362c4.7,0,8.6,3.9,8.6,8.6l0,0
			C432.4,380.2,428.6,383.9,423.8,383.9z"/>
		<path class="st4" d="M307.3,356.4H61.9c-4.7,0-8.6-3.9-8.6-8.6l0,0c0-4.7,3.9-8.6,8.6-8.6h245.4c4.7,0,8.6,3.9,8.6,8.6l0,0
			C315.9,352.5,312,356.4,307.3,356.4z"/>
		<path class="st4" d="M196.2,383.9H61.9c-4.7,0-8.6-3.9-8.6-8.6l0,0c0-4.7,3.9-8.6,8.6-8.6h134.2c4.7,0,8.6,3.9,8.6,8.6l0,0
			C204.7,380.2,200.8,383.9,196.2,383.9z"/>
		<ellipse class="st0" cx="100.6" cy="146.3" rx="46.1" ry="46.1"/>
		<g>
			<path class="st2" d="M262.3,268.8h-27c-2.6,0-4.7-2.1-4.7-4.7l0,0c0-2.6,2.1-4.7,4.7-4.7h27c2.6,0,4.7,2.1,4.7,4.7l0,0
				C267,266.7,264.9,268.8,262.3,268.8z"/>
			<ellipse class="st5" cx="248.7" cy="225.3" rx="27.6" ry="27.7"/>
			<path class="st5" d="M281.7,280.5h-65.8c-1.5,0-2.7-1.2-2.7-2.7l0,0c0-1.5,1.2-2.7,2.7-2.7h65.8c1.5,0,2.7,1.2,2.7,2.7l0,0
				C284.3,279.5,283.2,280.5,281.7,280.5z"/>
		</g>
		<g>
			<path class="st2" d="M409.8,268.8h-27c-2.6,0-4.7-2.1-4.7-4.7l0,0c0-2.6,2.1-4.7,4.7-4.7h27c2.6,0,4.7,2.1,4.7,4.7l0,0
				C414.3,266.7,412.2,268.8,409.8,268.8z"/>
			<ellipse class="st5" cx="396.2" cy="225.3" rx="27.6" ry="27.7"/>
			<path class="st5" d="M429.1,280.5h-65.8c-1.5,0-2.7-1.2-2.7-2.7l0,0c0-1.5,1.2-2.7,2.7-2.7h65.8c1.5,0,2.7,1.2,2.7,2.7l0,0
				C431.8,279.5,430.6,280.5,429.1,280.5z"/>
		</g>
		<g>
			<g>
				<ellipse class="st0" cx="100.6" cy="147.5" rx="46.7" ry="46.7"/>
			</g>
			<g>
				<g>
					<polygon class="st8" points="100.6,124.2 74.1,152.2 127.3,152.2 					"/>
				</g>
				<g>
					<rect x="98.2" y="118.3" class="st0" width="4.7" height="33.9"/>
				</g>
			</g>
			<g>
				<g>
					<g>
						<path class="st8" d="M74,171c-1.4,0-2.7-0.8-3.2-2.1l-9.5-20.6c-0.5-1.1-0.5-2.4,0.3-3.5c0.6-1.1,1.8-1.7,3-1.7
							c0.2,0,0.3,0,0.5,0l35.9,3.9l36-3.9c0.2,0,0.3,0,0.5,0c1.2,0,2.3,0.6,3,1.7c0.6,1.1,0.8,2.3,0.3,3.5l-9.5,20.6
							c-0.6,1.2-1.8,2.1-3.2,2.1H74z"/>
					</g>
					<g>
						<path class="st0" d="M136.9,145.7c0.9,0,1.5,0.9,1.1,1.7l-9.5,20.6c-0.2,0.5-0.6,0.8-1.1,0.8H74c-0.5,0-0.9-0.3-1.1-0.8
							l-9.6-20.6c-0.3-0.8,0.2-1.7,1.1-1.7h0.2l35.9,3.9h0.2h0.2L136.9,145.7L136.9,145.7 M136.9,141c-0.2,0-0.5,0-0.6,0l-35.7,3.8
							L65.1,141c-0.2,0-0.5,0-0.6,0c-2,0-3.9,1.1-5,2.7c-1.1,1.7-1.2,3.8-0.5,5.7l9.5,20.6c0.9,2.1,3,3.5,5.4,3.5h53.5
							c2.3,0,4.4-1.4,5.4-3.5l9.5-20.6c0.9-1.8,0.8-3.9-0.5-5.7C140.9,141.9,139.1,141,136.9,141L136.9,141z"/>
					</g>
				</g>
			</g>
		</g>
	</g>
</g>
</svg>
