<?xml version="1.0" encoding="utf-8"?>
<!-- Generator: Adobe Illustrator 23.0.0, SVG Export Plug-In . SVG Version: 6.00 Build 0)  -->
<svg version="1.1" xmlns="http://www.w3.org/2000/svg" xmlns:xlink="http://www.w3.org/1999/xlink" x="0px" y="0px"
	 width='1020' height='1052' viewBox="0 0 1020 1052" style="enable-background:new 0 0 1020 1052;" xml:space="preserve">
<style type="text/css">
	.st0{fill:#0389FF;}
	.st1{fill:#172965;}
	.st2{fill:#FFCD52;}
	.st3{fill:#FFFFFF;}
	.st4{fill:#0886FA;}
	.st5{fill:#0389FF;stroke:#0389FF;stroke-miterlimit:10;}
	.st6{fill:#0886FA;stroke:#0389FF;stroke-miterlimit:10;}
	.st7{fill:#172965;stroke:#172965;stroke-miterlimit:10;}
	.st8{fill:none;}
</style>
<g id="Layer_1">
	<g>
		<rect x="-4098.8" y="764.7" class="st0" width="47.4" height="7"/>
		<rect x="-4051.3" y="764.7" class="st1" width="47.4" height="7"/>
		<rect x="-4003.9" y="764.7" class="st0" width="47.4" height="7"/>
		<rect x="-3956.4" y="764.7" class="st1" width="47.4" height="7"/>
	</g>
	<g id="XMLID_25_">
		<polygon class="st1" points="-5186.9,814.4 -5037.9,181.6 -3957.2,-90 -3841.8,394.3 		"/>
	</g>
	<polyline class="st0" points="-3573.6,676.5 -3780.4,676.5 -3780.1,665.1 	"/>
	<circle class="st2" cx="-5395.4" cy="1327.7" r="689.8"/>
</g>
<g id="Layer_3">
</g>
<g id="Layer_4">
</g>
<g id="Layer_2">
	<g>
		<path class="st3" d="M-1675.8,414.3h-990c-13.8,0-25-11.2-25-25v-790c0-13.8,11.2-25,25-25h990c13.8,0,25,11.2,25,25v790
			C-1650.8,403.1-1661.9,414.3-1675.8,414.3z"/>
		<g>
			<g>
				<g>
					<rect x="-1711.5" y="411.7" class="st0" width="35.7" height="5.3"/>
					<rect x="-1747.2" y="411.7" class="st1" width="35.7" height="5.3"/>
					<rect x="-1783" y="411.7" class="st0" width="35.7" height="5.3"/>
					<rect x="-1818.7" y="411.7" class="st1" width="35.7" height="5.3"/>
				</g>
				<g>
					<rect x="-1854.5" y="411.7" class="st0" width="35.7" height="5.3"/>
					<rect x="-1890.2" y="411.7" class="st1" width="35.7" height="5.3"/>
					<rect x="-1925.9" y="411.7" class="st0" width="35.7" height="5.3"/>
					<rect x="-1961.7" y="411.7" class="st1" width="35.7" height="5.3"/>
				</g>
				<g>
					<rect x="-1997.4" y="411.7" class="st0" width="35.7" height="5.3"/>
					<rect x="-2033.2" y="411.7" class="st1" width="35.7" height="5.3"/>
					<rect x="-2068.9" y="411.7" class="st0" width="35.7" height="5.3"/>
					<rect x="-2104.6" y="411.7" class="st1" width="35.7" height="5.3"/>
				</g>
				<g>
					<rect x="-2140.4" y="411.7" class="st0" width="35.7" height="5.3"/>
					<rect x="-2176.1" y="411.7" class="st1" width="35.7" height="5.3"/>
					<rect x="-2211.9" y="411.7" class="st0" width="35.7" height="5.3"/>
					<rect x="-2247.6" y="411.7" class="st1" width="35.7" height="5.3"/>
				</g>
				<g>
					<rect x="-2283.3" y="411.7" class="st0" width="35.7" height="5.3"/>
					<rect x="-2319.1" y="411.7" class="st1" width="35.7" height="5.3"/>
					<rect x="-2354.8" y="411.7" class="st0" width="35.7" height="5.3"/>
					<rect x="-2390.6" y="411.7" class="st1" width="35.7" height="5.3"/>
				</g>
				<g>
					<rect x="-2426.3" y="411.7" class="st0" width="35.7" height="5.3"/>
					<rect x="-2462" y="411.7" class="st1" width="35.7" height="5.3"/>
					<rect x="-2497.8" y="411.7" class="st0" width="35.7" height="5.3"/>
					<rect x="-2533.5" y="411.7" class="st1" width="35.7" height="5.3"/>
				</g>
				<g>
					<rect x="-2569.3" y="411.7" class="st0" width="35.7" height="5.3"/>
					<rect x="-2605" y="411.7" class="st1" width="35.7" height="5.3"/>
					<rect x="-2640.8" y="411.7" class="st0" width="35.7" height="5.3"/>
					<path class="st1" d="M-2675.1,409.6c2.4,1.1,5,1.8,7.7,2c0.7,0,1.3,0.1,2,0.1h2.2h4.5h17.9v5.3h-17.9h-4.5h-2.2
						c-0.7,0-1.6-0.1-2.4-0.1c-3.3-0.2-6.5-1.1-9.5-2.4L-2675.1,409.6z"/>
				</g>
				<g>
					<path class="st0" d="M-2688.1,382.1v4.5v2.2c0,0.8,0.1,1.4,0.1,2.1c0.2,2.7,0.8,5.3,1.9,7.7c1.1,2.4,2.6,4.7,4.5,6.6
						c1.9,1.9,4.1,3.4,6.5,4.5l-2.2,4.8c-3-1.4-5.7-3.3-8.1-5.6c-2.3-2.3-4.2-5.1-5.6-8.1c-1.4-3-2.2-6.2-2.4-9.5
						c0-0.8-0.1-1.7-0.1-2.4v-2.2v-4.5H-2688.1z"/>
					<rect x="-2693.4" y="346.3" class="st1" width="5.3" height="35.7"/>
					<rect x="-2693.4" y="310.6" class="st0" width="5.3" height="35.7"/>
					<rect x="-2693.4" y="274.9" class="st1" width="5.3" height="35.7"/>
				</g>
				<g>
					<rect x="-2693.4" y="239.1" class="st0" width="5.3" height="35.7"/>
					<rect x="-2693.4" y="203.4" class="st1" width="5.3" height="35.7"/>
					<rect x="-2693.4" y="167.6" class="st0" width="5.3" height="35.7"/>
					<rect x="-2693.4" y="131.9" class="st1" width="5.3" height="35.7"/>
				</g>
				<g>
					<rect x="-2693.4" y="96.1" class="st0" width="5.3" height="35.7"/>
					<rect x="-2693.4" y="60.4" class="st1" width="5.3" height="35.7"/>
					<rect x="-2693.4" y="24.7" class="st0" width="5.3" height="35.7"/>
					<rect x="-2693.4" y="-11.1" class="st1" width="5.3" height="35.7"/>
				</g>
				<g>
					<rect x="-2693.4" y="-46.8" class="st0" width="5.3" height="35.7"/>
					<rect x="-2693.4" y="-82.6" class="st1" width="5.3" height="35.7"/>
					<rect x="-2693.4" y="-118.3" class="st0" width="5.3" height="35.7"/>
					<rect x="-2693.4" y="-154" class="st1" width="5.3" height="35.7"/>
				</g>
				<g>
					<rect x="-2693.4" y="-189.8" class="st0" width="5.3" height="35.7"/>
					<rect x="-2693.4" y="-225.5" class="st1" width="5.3" height="35.7"/>
					<rect x="-2693.4" y="-261.3" class="st0" width="5.3" height="35.7"/>
					<rect x="-2693.4" y="-297" class="st1" width="5.3" height="35.7"/>
				</g>
				<g>
					<rect x="-2693.4" y="-332.7" class="st0" width="5.3" height="35.7"/>
					<rect x="-2693.4" y="-368.5" class="st1" width="5.3" height="35.7"/>
					<path class="st0" d="M-2687.9-403.8c0,0.3-0.1,0.7-0.1,1l0,1l-0.1,1c0,0.3,0,0.7,0,1.1v4.5v8.9v17.9h-5.3v-17.9v-8.9v-4.5
						c0-0.4,0-0.7,0-1.1l0.1-1.2l0.1-1.2c0-0.4,0.1-0.8,0.2-1.2L-2687.9-403.8z"/>
					<path class="st1" d="M-2665.8-423.1c-5.3,0-10.6,2-14.7,5.5c-2,1.7-3.7,3.8-5,6.2c-1.3,2.3-2.1,4.9-2.5,7.6l-5.2-0.7
						c0.4-3.3,1.5-6.4,3.1-9.3c1.6-2.9,3.7-5.5,6.2-7.6c5-4.3,11.5-6.8,18.1-6.8V-423.1z"/>
				</g>
				<g>
					<rect x="-2665.8" y="-428.3" class="st0" width="35.7" height="5.3"/>
					<rect x="-2630" y="-428.3" class="st1" width="35.7" height="5.3"/>
					<rect x="-2594.3" y="-428.3" class="st0" width="35.7" height="5.3"/>
					<rect x="-2558.5" y="-428.3" class="st1" width="35.7" height="5.3"/>
				</g>
				<g>
					<rect x="-2522.8" y="-428.3" class="st0" width="35.7" height="5.3"/>
					<rect x="-2487" y="-428.3" class="st1" width="35.7" height="5.3"/>
					<rect x="-2451.3" y="-428.3" class="st0" width="35.7" height="5.3"/>
					<rect x="-2415.6" y="-428.3" class="st1" width="35.7" height="5.3"/>
				</g>
				<g>
					<rect x="-2379.8" y="-428.3" class="st0" width="35.7" height="5.3"/>
					<rect x="-2344.1" y="-428.3" class="st1" width="35.7" height="5.3"/>
					<rect x="-2308.3" y="-428.3" class="st0" width="35.7" height="5.3"/>
					<rect x="-2272.6" y="-428.3" class="st1" width="35.7" height="5.3"/>
				</g>
				<g>
					<rect x="-2236.9" y="-428.3" class="st0" width="35.7" height="5.3"/>
					<rect x="-2201.1" y="-428.3" class="st1" width="35.7" height="5.3"/>
					<rect x="-2165.4" y="-428.3" class="st0" width="35.7" height="5.3"/>
					<rect x="-2129.6" y="-428.3" class="st1" width="35.7" height="5.3"/>
				</g>
				<g>
					<rect x="-2093.9" y="-428.3" class="st0" width="35.7" height="5.3"/>
					<rect x="-2058.2" y="-428.3" class="st1" width="35.7" height="5.3"/>
					<rect x="-2022.4" y="-428.3" class="st0" width="35.7" height="5.3"/>
					<rect x="-1986.7" y="-428.3" class="st1" width="35.7" height="5.3"/>
				</g>
				<g>
					<rect x="-1950.9" y="-428.3" class="st0" width="35.7" height="5.3"/>
					<rect x="-1915.2" y="-428.3" class="st1" width="35.7" height="5.3"/>
					<rect x="-1879.5" y="-428.3" class="st0" width="35.7" height="5.3"/>
					<rect x="-1843.7" y="-428.3" class="st1" width="35.7" height="5.3"/>
				</g>
				<g>
					<rect x="-1808" y="-428.3" class="st0" width="35.7" height="5.3"/>
					<rect x="-1772.2" y="-428.3" class="st1" width="35.7" height="5.3"/>
					<rect x="-1736.5" y="-428.3" class="st0" width="35.7" height="5.3"/>
					<path class="st1" d="M-1666.4-421c-2.4-1.1-5-1.8-7.7-2c-0.7,0-1.3-0.1-2-0.1h-2.2h-4.5h-17.9v-5.3h17.9h4.5h2.2
						c0.7,0,1.6,0.1,2.4,0.1c3.3,0.2,6.5,1.1,9.5,2.4L-1666.4-421z"/>
				</g>
				<g>
					<path class="st0" d="M-1653.4-393.5v-4.5v-2.2c0-0.8-0.1-1.4-0.1-2.1c-0.2-2.7-0.8-5.3-1.9-7.7c-1.1-2.4-2.6-4.7-4.5-6.6
						c-1.9-1.9-4.1-3.4-6.5-4.5l2.2-4.8c3,1.4,5.7,3.3,8.1,5.6c2.3,2.3,4.2,5.1,5.6,8.1c1.4,3,2.2,6.2,2.4,9.5
						c0,0.8,0.1,1.7,0.1,2.4v2.2v4.5H-1653.4z"/>
					<rect x="-1653.4" y="-393.5" class="st1" width="5.3" height="35.7"/>
					<rect x="-1653.4" y="-357.7" class="st0" width="5.3" height="35.7"/>
					<rect x="-1653.4" y="-322" class="st1" width="5.3" height="35.7"/>
				</g>
				<g>
					<rect x="-1653.4" y="-286.3" class="st0" width="5.3" height="35.7"/>
					<rect x="-1653.4" y="-250.5" class="st1" width="5.3" height="35.7"/>
					<rect x="-1653.4" y="-214.8" class="st0" width="5.3" height="35.7"/>
					<rect x="-1653.4" y="-179" class="st1" width="5.3" height="35.7"/>
				</g>
				<g>
					<rect x="-1653.4" y="-143.3" class="st0" width="5.3" height="35.7"/>
					<rect x="-1653.4" y="-107.6" class="st1" width="5.3" height="35.7"/>
					<rect x="-1653.4" y="-71.8" class="st0" width="5.3" height="35.7"/>
					<rect x="-1653.4" y="-36.1" class="st1" width="5.3" height="35.7"/>
				</g>
				<g>
					<rect x="-1653.4" y="-0.3" class="st0" width="5.3" height="35.7"/>
					<rect x="-1653.4" y="35.4" class="st1" width="5.3" height="35.7"/>
					<rect x="-1653.4" y="71.1" class="st0" width="5.3" height="35.7"/>
					<rect x="-1653.4" y="106.9" class="st1" width="5.3" height="35.7"/>
				</g>
				<g>
					<rect x="-1653.4" y="142.6" class="st0" width="5.3" height="35.7"/>
					<rect x="-1653.4" y="178.4" class="st1" width="5.3" height="35.7"/>
					<rect x="-1653.4" y="214.1" class="st0" width="5.3" height="35.7"/>
					<rect x="-1653.4" y="249.9" class="st1" width="5.3" height="35.7"/>
				</g>
				<g>
					<rect x="-1653.4" y="285.6" class="st0" width="5.3" height="35.7"/>
					<rect x="-1653.4" y="321.3" class="st1" width="5.3" height="35.7"/>
					<path class="st0" d="M-1653.6,392.4c0-0.3,0.1-0.7,0.1-1l0-1l0.1-1c0-0.3,0-0.7,0-1.1v-4.5v-8.9v-17.9h5.3v17.9v8.9v4.5
						c0,0.4,0,0.7,0,1.1l-0.1,1.2l-0.1,1.2c0,0.4-0.1,0.8-0.2,1.2L-1653.6,392.4z"/>
					<path class="st1" d="M-1675.8,411.7c5.3,0,10.6-2,14.7-5.5c2-1.7,3.7-3.8,5-6.2c1.3-2.3,2.1-4.9,2.5-7.6l5.2,0.7
						c-0.4,3.3-1.5,6.4-3.1,9.3c-1.6,2.9-3.7,5.5-6.2,7.6c-5,4.3-11.5,6.8-18.1,6.8V411.7z"/>
				</g>
			</g>
		</g>
	</g>
	<g>
		<g>
			<path class="st4" d="M-2167.5-368.3c-4.4,0-7.9-3.5-8-8c0,0,0,0,0,0c-6.8-1.2-13.2-3.8-18.9-7.8c0,0,0,0,0,0
				c-1.5,1.5-3.6,2.4-5.7,2.4c-2.1,0-4.1-0.8-5.5-2.3c-3.2-3.1-3.2-8.1-0.1-11.3c0,0,0,0,0.1-0.1c-4-5.6-6.6-12-7.8-18.9
				c-0.2,0-0.3,0-0.5,0c-4.5-0.1-7.9-3.5-7.9-7.9c0-4.5,3.4-8,7.9-8c0.1,0,0.3,0,0.4,0c1.2-6.8,3.8-13,7.7-18.7l-0.2-0.2
				c-1.5-1.5-2.4-3.5-2.4-5.6c0-2.1,0.8-4.2,2.3-5.7c1.5-1.5,3.5-2.3,5.6-2.3s4.2,0.9,5.7,2.4l0.1,0.1c5.7-4.1,12.1-6.7,19-8
				c0,0,0-0.1,0-0.1c0.1-4.4,3.6-7.9,8-7.9c0.6,0,1.1,0.1,1.7,0.2c3.6,0.7,6.2,4,6.3,7.7c0,0.1,0,0.1,0,0.2c3.5,0.6,6.8,1.6,9.9,2.9
				c3.2,1.4,6.3,3,9,5c0,0,0,0,0,0c1.5-1.5,3.6-2.4,5.7-2.4c1.3,0,2.6,0.3,3.7,0.9c3.3,1.8,4.9,5.5,3.9,9c-0.5,1.6-1.4,2.9-2.1,3.6
				c0,0,0,0,0,0.1c2,2.9,3.7,5.9,5,9c1.3,3.2,2.3,6.5,2.9,9.9c2.5,0.1,4.8,1.3,6.2,3.3c1.5,2.1,1.9,4.7,1.1,7.2
				c-1,3.1-3.9,5.3-7.3,5.4c-1.2,6.9-3.9,13.3-8,19.1c2.9,3.1,3,8,0,11.1c-1.5,1.5-3.6,2.4-5.7,2.4c-2.1,0-4.1-0.8-5.6-2.3
				c-3.5,2.4-7.3,4.4-11.3,5.8c-2.5,0.9-5,1.5-7.4,1.9C-2159.5-371.7-2162.9-368.3-2167.5-368.3L-2167.5-368.3z M-2180.1-398.3
				c1.6,0.8,3.2,1.5,4.7,2c0-2.2,0-4.4,0-6.6L-2180.1-398.3z M-2159.5-396.4c1.5-0.5,3-1.1,4.5-1.8c0,0-3.1-3.1-4.5-4.5
				C-2159.5-400.6-2159.5-398.5-2159.5-396.4z M-2143.6-409.4c0.9-1.6,1.5-3.2,2.1-4.9c0,0-6.5,0-6.9,0L-2143.6-409.4z
				 M-2193.3-414.3c0.5,1.6,1.1,3.1,1.9,4.6l4.6-4.6H-2193.3z M-2187-430.3l-4.5-4.5c-0.8,1.4-1.4,2.9-1.9,4.5
				C-2193.4-430.3-2187.1-430.3-2187-430.3z M-2141.5-430.3c-0.5-1.6-1.1-3.2-1.9-4.7c0,0-3.9,3.9-4.7,4.7H-2141.5z M-2175.5-441.3
				v-6.9c-1.7,0.5-3.3,1.2-4.8,2C-2179.5-445.4-2175.8-441.7-2175.5-441.3z M-2159.5-441.6c1.6-1.6,3.1-3.1,4.7-4.7
				c-1.5-0.8-3.2-1.5-4.7-2C-2159.5-446-2159.5-443.8-2159.5-441.6z"/>
			<path class="st3" d="M-2167.4-471.3c0.2,0,0.4,0,0.7,0.1c1.3,0.3,2.3,1.5,2.3,2.9c0,1.5,0,2.9,0,4.5c4.5,0.4,8.8,1.4,13,3.1
				c4.1,1.7,7.9,4,11.3,7c1.1-1.1,2.1-2.1,3.2-3.1c0.6-0.6,1.4-0.9,2.2-0.9c0.5,0,1,0.1,1.4,0.3c1.2,0.6,1.8,2,1.5,3.3
				c-0.2,0.6-0.5,1.1-0.9,1.5c-1,1-2,2-3.1,3c3,3.5,5.3,7.2,7,11.4c1.7,4.1,2.7,8.4,3.1,13c0.9,0,1.7,0,2.5,0c0.5,0,1,0,1.5,0
				c2.2,0,3.6,1.9,2.9,4c-0.4,1.2-1.5,1.9-2.8,2c-1.3,0-2.6,0-4,0c0,0-0.1,0-0.2,0.1c-0.7,9.2-4.2,17.3-10.2,24.4c1,1,2,1.9,2.9,2.9
				c1.2,1.1,1.3,3.1,0.1,4.3c-0.6,0.6-1.3,0.9-2.1,0.9c-0.8,0-1.6-0.3-2.2-0.9c-1-1-2-2-3-3c-0.8,0.6-1.6,1.2-2.4,1.8
				c-3.4,2.5-7,4.5-11,5.8c-3.3,1.1-6.6,1.9-10,2.2c-0.6,0.1-0.8,0.3-0.8,0.9c0.1,1.2,0,2.4,0,3.5c0,1.8-1.2,3.1-3,3.1c0,0,0,0,0,0
				c-1.7,0-3-1.3-3-3c0-1.4,0-2.8,0-4.2c0,0,0-0.1-0.1-0.2c-9.1-0.8-17.2-4.1-24.3-10.1c-1,1.1-2,2.1-3.1,3.2
				c-0.6,0.6-1.4,0.9-2.2,0.9c-0.7,0-1.5-0.3-2-0.8c-1.2-1.2-1.2-3,0-4.3c1-1,2-2.1,3.1-3.2c-6-6.9-9.3-15-10.1-24.2c-1,0-2,0-2.9,0
				c-0.6,0-1.2,0-1.8,0c-1.7,0-3-1.3-3-3c0-1.7,1.3-3,3-3c0.6,0,1.2,0,1.8,0c1,0,1.9,0,3,0c0.7-9.1,4-17.1,10-24.2
				c-0.7-0.7-1.5-1.4-2.2-2.1c-0.4-0.4-0.8-0.8-1.2-1.1c-1.2-1.2-1.2-3.1-0.1-4.3c0.6-0.6,1.3-0.8,2.1-0.8c0.8,0,1.6,0.3,2.2,0.9
				c1.1,1.1,2.2,2.2,3.3,3.3c7-6.1,15.2-9.5,24.4-10.2c0-1.5,0-3,0-4.4C-2170.4-470-2169.1-471.3-2167.4-471.3 M-2173.7-432.7
				C-2173.7-432.7-2173.6-432.7-2173.7-432.7c1.1-0.4,2.2-0.9,3.2-1.4c0-6.7,0-13.4,0-20.2c-6.6,0.7-12.5,3.1-17.7,7.5
				c0.3,0.2,0.5,0.4,0.7,0.6c2,2,4,4,6,5.9c2.5,2.5,5,5,7.5,7.4C-2174-432.8-2173.8-432.7-2173.7-432.7 M-2161.6-432.6
				c0.2,0,0.3-0.1,0.5-0.3c3.9-3.9,7.8-7.9,11.8-11.8c0.8-0.8,1.6-1.6,2.4-2.3c-3.7-3.5-12.6-7.3-17-7.3c-0.2,0-0.4,0-0.5,0
				c0,0.1-0.1,0.2-0.1,0.3c0,6.6,0,13.1,0,19.7c0,0.2,0.2,0.5,0.4,0.6c0.7,0.4,1.4,0.6,2.1,1
				C-2161.8-432.6-2161.7-432.6-2161.6-432.6 M-2156.1-425.3c6.9,0,13.7,0,20.6,0c-0.7-6.6-3.1-12.4-7.3-17.5
				c-2.3,2.3-4.5,4.5-6.7,6.7c-2.5,2.5-5,5-7.5,7.5c-0.2,0.2-0.3,0.5-0.2,0.7C-2156.9-427-2156.5-426.2-2156.1-425.3 M-2199.4-425.3
				c1.5,0,2.9,0,4.4,0c0.7,0,1.4,0,2.1,0c0.1,0,0.1,0,0.2,0c1.8,0,3.7,0,5.5,0c2.4,0,4.9,0,7.3,0c0,0,0,0,0,0c0.5,0,0.7-0.1,0.8-0.6
				c0.2-0.7,0.6-1.4,0.9-2.2c0.1-0.2,0-0.5-0.1-0.6c-0.9-1-1.8-1.9-2.8-2.8c-2.6-2.6-5.3-5.3-7.9-7.9c-1.1-1.1-2.1-2.2-3.2-3.3
				C-2196.4-437.5-2198.8-431.8-2199.4-425.3 M-2167.7-415.2c3.8,0,7-3.2,7-7c0-3.8-3.2-7.1-7-7.1c0,0,0,0,0,0c-3.8,0-7,3.2-7.1,7
				C-2174.8-418.5-2171.6-415.2-2167.7-415.2C-2167.7-415.2-2167.7-415.2-2167.7-415.2 M-2142.9-401.6c4.3-5.2,6.7-11,7.4-17.7
				c-1.2,0-2.4,0-3.5,0c-0.6,0-1.1,0-1.7,0c-2.3,0-4.5,0-6.8,0c-2.7,0-5.4,0-8.1,0c0,0,0,0,0,0c-0.5,0-0.7,0.2-0.9,0.6
				c-0.2,0.7-0.5,1.4-0.8,2c-0.2,0.4-0.1,0.5,0.2,0.8c1.7,1.6,3.3,3.3,5,4.9c2.6,2.6,5.2,5.2,7.8,7.8
				C-2143.9-402.6-2143.4-402.1-2142.9-401.6 M-2192.2-401.8c4.8-4.8,9.5-9.5,14.2-14.2c-0.5-1.1-0.9-2.2-1.4-3.3
				c-6.7,0-13.3,0-20,0C-2198.8-412.7-2196.3-406.9-2192.2-401.8 M-2164.5-390.3c6.5-0.6,12.2-3,17.3-7.1c-1-1-2-2-2.9-2.9
				c-3.8-3.8-7.5-7.6-11.3-11.3c-0.1-0.1-0.3-0.1-0.4-0.1c-0.1,0-0.2,0-0.3,0c-0.6,0.2-1.1,0.5-1.7,0.7c-0.5,0.2-0.7,0.4-0.7,1
				c0,6.3,0,12.7,0,19C-2164.5-390.8-2164.5-390.6-2164.5-390.3 M-2170.4-390.4c0-0.3,0-0.6,0-0.9c0-6.1,0-12.2,0-18.2
				c0-0.8-0.1-1.3-1-1.4c-0.3,0-0.5-0.2-0.8-0.3c-0.4-0.2-0.9-0.5-1.3-0.5c0,0-0.1,0-0.1,0c-0.5,0.1-0.8,0.7-1.2,1.1
				c-3.6,3.6-7.2,7.2-10.8,10.8c-0.7,0.7-1.5,1.5-2.2,2.2C-2182-392.6-2175-390.6-2170.4-390.4 M-2167.4-481.3
				c-5.8,0-10.6,3.7-12.3,8.9c-5.2,1.3-10.1,3.3-14.6,6.1c-1.8-0.9-3.9-1.4-6-1.4c-3.5,0-6.7,1.3-9.2,3.8c-2.4,2.4-3.8,5.8-3.7,9.3
				c0,2.1,0.5,4.1,1.5,5.9c-2.6,4.4-4.6,9.1-5.8,14.1c-5.3,1.6-9.2,6.6-9.2,12.5c0,5.9,3.9,10.7,9.2,12.3c1.3,5.1,3.3,9.9,6,14.4
				c-2.5,4.9-1.6,10.9,2.5,15c2.4,2.4,5.6,3.7,9,3.7c2.1,0,4-0.5,5.8-1.4c4.5,2.8,9.3,4.8,14.5,6c1.7,5.2,6.5,8.8,12.3,8.8
				c5.8,0,10.6-3.7,12.3-8.9c1.6-0.4,3.2-0.9,4.7-1.4c3.3-1.2,6.6-2.7,9.6-4.5c1.7,0.8,3.7,1.3,5.6,1.3c3.5,0,6.9-1.4,9.4-4
				c3.8-4,4.5-9.8,2.3-14.5c2.9-4.6,4.9-9.6,6.2-14.9c3.7-1.3,6.6-4.3,7.8-8.1c1.3-4,0.6-8.3-1.8-11.7c-1.5-2.1-3.6-3.7-6.1-4.6
				c-0.6-2.6-1.5-5.1-2.5-7.6c-1-2.4-2.2-4.8-3.6-7c0.4-0.7,0.7-1.5,0.9-2.4c1.6-5.8-1-11.9-6.4-14.8c-1.9-1-4-1.5-6.1-1.5
				c-2,0-4,0.5-5.8,1.3c-2.2-1.3-4.5-2.5-7-3.6c-2.4-1-4.9-1.8-7.5-2.5c-1.4-4.3-5.1-7.6-9.6-8.6
				C-2165.6-481.2-2166.5-481.3-2167.4-481.3L-2167.4-481.3z"/>
		</g>
	</g>
	<g>
		<g>
			<path class="st4" d="M-2167.5-368.3c-4.4,0-7.9-3.5-8-8c0,0,0,0,0,0c-6.8-1.2-13.2-3.8-18.9-7.8c0,0,0,0,0,0
				c-1.5,1.5-3.6,2.4-5.7,2.4c-2.1,0-4.1-0.8-5.5-2.3c-3.2-3.1-3.2-8.1-0.1-11.3c0,0,0,0,0.1-0.1c-4-5.6-6.6-12-7.8-18.9
				c-0.2,0-0.3,0-0.5,0c-4.5-0.1-7.9-3.5-7.9-7.9c0-4.5,3.4-8,7.9-8c0.1,0,0.3,0,0.4,0c1.2-6.8,3.8-13,7.7-18.7l-0.2-0.2
				c-1.5-1.5-2.4-3.5-2.4-5.6c0-2.1,0.8-4.2,2.3-5.7c1.5-1.5,3.5-2.3,5.6-2.3s4.2,0.9,5.7,2.4l0.1,0.1c5.7-4.1,12.1-6.7,19-8
				c0,0,0-0.1,0-0.1c0.1-4.4,3.6-7.9,8-7.9c0.6,0,1.1,0.1,1.7,0.2c3.6,0.7,6.2,4,6.3,7.7c0,0.1,0,0.1,0,0.2c3.4,0.6,6.8,1.6,9.9,2.9
				c3.2,1.4,6.3,3,9,5c0,0,0,0,0,0c1.5-1.5,3.6-2.4,5.7-2.4c1.3,0,2.6,0.3,3.7,0.9c3.3,1.8,4.9,5.5,3.9,9c-0.5,1.6-1.4,2.9-2.1,3.6
				c0,0,0,0,0,0.1c2,2.9,3.7,5.9,5,9c1.3,3.2,2.3,6.5,2.9,9.9c2.5,0.1,4.8,1.3,6.2,3.3c1.5,2.1,1.9,4.7,1.1,7.2
				c-1,3.1-3.9,5.3-7.3,5.4c-1.2,6.9-3.9,13.3-8,19.1c2.9,3.1,3,8,0,11.1c-1.5,1.5-3.6,2.4-5.7,2.4c-2.1,0-4.1-0.8-5.6-2.3
				c-3.5,2.4-7.3,4.4-11.3,5.8c-2.5,0.9-5,1.5-7.4,1.9C-2159.5-371.7-2162.9-368.3-2167.5-368.3L-2167.5-368.3z M-2180.1-398.3
				c1.6,0.8,3.2,1.5,4.7,2c0-2.2,0-4.4,0-6.6L-2180.1-398.3z M-2159.5-396.4c1.5-0.5,3-1.1,4.5-1.8c0,0-3.1-3.1-4.5-4.5
				C-2159.5-400.6-2159.5-398.5-2159.5-396.4z M-2143.6-409.4c0.9-1.6,1.5-3.2,2.1-4.9c0,0-6.5,0-6.9,0L-2143.6-409.4z
				 M-2193.3-414.3c0.5,1.6,1.1,3.1,1.9,4.6l4.6-4.6H-2193.3z M-2187-430.3l-4.5-4.5c-0.8,1.4-1.4,2.9-1.9,4.5
				C-2193.4-430.3-2187.1-430.3-2187-430.3z M-2141.5-430.3c-0.5-1.6-1.1-3.2-1.9-4.7c0,0-3.9,3.9-4.7,4.7H-2141.5z M-2175.5-441.3
				v-6.9c-1.7,0.5-3.3,1.2-4.8,2C-2179.6-445.5-2175.9-441.7-2175.5-441.3z M-2159.5-441.6c1.6-1.6,3.1-3.1,4.7-4.7
				c-1.5-0.8-3.2-1.5-4.7-2C-2159.5-446-2159.5-443.8-2159.5-441.6z"/>
			<path class="st3" d="M-2167.4-471.3c0.2,0,0.4,0,0.7,0.1c1.3,0.3,2.3,1.5,2.3,2.9c0,1.5,0,2.9,0,4.5c4.5,0.4,8.8,1.4,13,3.1
				c4.1,1.7,7.9,4,11.3,7c1.1-1.1,2.1-2.1,3.2-3.1c0.6-0.6,1.4-0.9,2.2-0.9c0.5,0,1,0.1,1.4,0.3c1.2,0.6,1.8,2,1.5,3.3
				c-0.2,0.6-0.5,1.1-0.9,1.5c-1,1-2,2-3.1,3c3,3.5,5.3,7.2,7,11.4c1.7,4.1,2.7,8.4,3.1,13c0.9,0,1.7,0,2.5,0c0.5,0,1,0,1.5,0
				c2.2,0,3.6,1.9,2.9,4c-0.4,1.2-1.5,1.9-2.8,2c-1.3,0-2.6,0-4,0c0,0-0.1,0-0.2,0.1c-0.7,9.2-4.2,17.3-10.2,24.4c1,1,2,1.9,2.9,2.9
				c1.2,1.1,1.3,3.1,0.1,4.3c-0.6,0.6-1.3,0.9-2.1,0.9c-0.8,0-1.6-0.3-2.2-0.9c-1-1-2-2-3-3c-0.8,0.6-1.6,1.2-2.4,1.8
				c-3.4,2.5-7,4.5-11,5.8c-3.3,1.1-6.6,1.9-10,2.2c-0.6,0.1-0.8,0.3-0.8,0.9c0.1,1.2,0,2.4,0,3.5c0,1.8-1.2,3.1-3,3.1c0,0,0,0,0,0
				c-1.7,0-3-1.3-3-3c0-1.4,0-2.8,0-4.2c0,0,0-0.1-0.1-0.2c-9.1-0.8-17.2-4.1-24.3-10.1c-1,1.1-2,2.1-3.1,3.2
				c-0.6,0.6-1.4,0.9-2.2,0.9c-0.7,0-1.5-0.3-2-0.8c-1.2-1.2-1.2-3,0-4.3c1-1,2-2.1,3.1-3.2c-6-6.9-9.3-15-10.1-24.2c-1,0-2,0-2.9,0
				c-0.6,0-1.2,0-1.8,0c-1.7,0-3-1.3-3-3c0-1.7,1.3-3,3-3c0.6,0,1.2,0,1.8,0c1,0,1.9,0,3,0c0.7-9.1,4-17.1,10-24.2
				c-0.7-0.7-1.5-1.4-2.2-2.1c-0.4-0.4-0.8-0.8-1.2-1.1c-1.2-1.2-1.2-3.1-0.1-4.3c0.6-0.6,1.3-0.8,2.1-0.8c0.8,0,1.6,0.3,2.2,0.9
				c1.1,1.1,2.2,2.2,3.3,3.3c7-6.1,15.2-9.5,24.4-10.2c0-1.5,0-3,0-4.4C-2170.4-470-2169.1-471.3-2167.4-471.3 M-2173.7-432.7
				C-2173.7-432.7-2173.6-432.7-2173.7-432.7c1.1-0.4,2.2-0.9,3.2-1.4c0-6.7,0-13.4,0-20.2c-6.6,0.7-12.5,3.1-17.7,7.5
				c0.3,0.2,0.5,0.4,0.7,0.6c2,2,4,4,6,5.9c2.5,2.5,5,5,7.5,7.4C-2174-432.8-2173.8-432.7-2173.7-432.7 M-2161.6-432.6
				c0.2,0,0.3-0.1,0.5-0.3c3.9-3.9,7.8-7.9,11.8-11.8c0.8-0.8,1.6-1.6,2.4-2.3c-3.7-3.5-12.6-7.3-17-7.3c-0.2,0-0.4,0-0.5,0
				c0,0.1-0.1,0.2-0.1,0.3c0,6.6,0,13.1,0,19.7c0,0.2,0.2,0.5,0.4,0.6c0.7,0.4,1.4,0.6,2.1,1
				C-2161.8-432.6-2161.7-432.6-2161.6-432.6 M-2156.1-425.3c6.9,0,13.7,0,20.6,0c-0.7-6.6-3.1-12.4-7.3-17.5
				c-2.3,2.3-4.5,4.5-6.7,6.7c-2.5,2.5-5,5-7.5,7.5c-0.2,0.2-0.3,0.5-0.2,0.7C-2156.9-427-2156.5-426.2-2156.1-425.3 M-2199.4-425.3
				c1.5,0,2.9,0,4.4,0c0.7,0,1.4,0,2.1,0c0.1,0,0.1,0,0.2,0c1.8,0,3.7,0,5.5,0c2.4,0,4.9,0,7.3,0c0,0,0,0,0,0c0.5,0,0.7-0.1,0.8-0.6
				c0.2-0.7,0.6-1.4,0.9-2.2c0.1-0.2,0-0.5-0.1-0.6c-0.9-1-1.8-1.9-2.8-2.8c-2.6-2.6-5.3-5.3-7.9-7.9c-1.1-1.1-2.1-2.2-3.2-3.3
				C-2196.4-437.5-2198.8-431.8-2199.4-425.3 M-2167.7-415.2c3.8,0,7-3.2,7-7c0-3.8-3.2-7.1-7-7.1c0,0,0,0,0,0c-3.8,0-7,3.2-7.1,7
				C-2174.8-418.5-2171.6-415.2-2167.7-415.2C-2167.7-415.2-2167.7-415.2-2167.7-415.2 M-2142.9-401.6c4.3-5.2,6.7-11,7.4-17.7
				c-1.2,0-2.4,0-3.5,0c-0.6,0-1.1,0-1.7,0c-2.3,0-4.5,0-6.8,0c-2.7,0-5.4,0-8.1,0c0,0,0,0,0,0c-0.5,0-0.7,0.2-0.9,0.6
				c-0.2,0.7-0.5,1.4-0.8,2c-0.2,0.4-0.1,0.5,0.2,0.8c1.7,1.6,3.3,3.3,5,4.9c2.6,2.6,5.2,5.2,7.8,7.8
				C-2143.9-402.6-2143.4-402.1-2142.9-401.6 M-2192.2-401.8c4.8-4.8,9.5-9.5,14.2-14.2c-0.5-1.1-0.9-2.2-1.4-3.3
				c-6.7,0-13.3,0-20,0C-2198.8-412.7-2196.3-406.9-2192.2-401.8 M-2164.5-390.3c6.5-0.6,12.2-3,17.3-7.1c-1-1-2-2-2.9-2.9
				c-3.8-3.8-7.5-7.6-11.3-11.3c-0.1-0.1-0.3-0.1-0.4-0.1c-0.1,0-0.2,0-0.3,0c-0.6,0.2-1.1,0.5-1.7,0.7c-0.5,0.2-0.7,0.4-0.7,1
				c0,6.3,0,12.7,0,19C-2164.5-390.8-2164.5-390.6-2164.5-390.3 M-2170.4-390.4c0-0.3,0-0.6,0-0.9c0-6.1,0-12.2,0-18.2
				c0-0.8-0.1-1.3-1-1.4c-0.3,0-0.5-0.2-0.8-0.3c-0.4-0.2-0.9-0.5-1.3-0.5c0,0-0.1,0-0.1,0c-0.5,0.1-0.8,0.7-1.2,1.1
				c-3.6,3.6-7.2,7.2-10.8,10.8c-0.7,0.7-1.5,1.5-2.2,2.2C-2182-392.6-2175-390.6-2170.4-390.4 M-2167.4-481.3
				c-5.8,0-10.6,3.7-12.3,8.9c-5.2,1.3-10.1,3.3-14.6,6.1c-1.8-0.9-3.9-1.4-6-1.4c-3.5,0-6.7,1.3-9.2,3.8c-2.4,2.4-3.8,5.8-3.7,9.3
				c0,2.1,0.5,4.1,1.5,5.9c-2.6,4.4-4.6,9.1-5.8,14.1c-5.3,1.6-9.2,6.6-9.2,12.5c0,5.9,3.9,10.7,9.2,12.3c1.3,5.1,3.3,9.9,6,14.4
				c-2.5,4.9-1.6,10.9,2.5,15c2.4,2.4,5.6,3.7,9,3.7c2.1,0,4-0.5,5.8-1.4c4.5,2.8,9.3,4.8,14.5,6c1.7,5.2,6.5,8.8,12.3,8.8
				c5.8,0,10.6-3.7,12.3-8.9c1.6-0.4,3.2-0.9,4.7-1.4c3.3-1.2,6.6-2.7,9.6-4.5c1.7,0.8,3.7,1.3,5.6,1.3c3.5,0,7-1.4,9.4-4
				c3.8-4,4.5-9.8,2.3-14.5c2.9-4.6,4.9-9.6,6.2-14.9c3.7-1.3,6.6-4.3,7.8-8.1c1.3-4,0.6-8.3-1.8-11.7c-1.5-2.1-3.6-3.7-6.1-4.6
				c-0.6-2.6-1.5-5.1-2.5-7.6c-1-2.4-2.2-4.8-3.6-7c0.4-0.7,0.7-1.5,0.9-2.4c1.6-5.8-1-11.9-6.4-14.8c-1.9-1-4-1.5-6.1-1.5
				c-2,0-4,0.5-5.8,1.3c-2.2-1.3-4.5-2.5-7-3.6c-2.4-1-4.9-1.8-7.5-2.5c-1.4-4.3-5.1-7.6-9.6-8.6
				C-2165.6-481.2-2166.5-481.3-2167.4-481.3L-2167.4-481.3z"/>
		</g>
	</g>
	<g>
		<path class="st5" d="M-2689.8-380.7h-5c-2.8,0-5-2.2-5-5v-16.5c0-17.9,14.6-32.5,32.5-32.5h15.5c2.8,0,5,2.2,5,5v5
			c0,2.8-2.2,5-5,5h-15.5c-9.7,0-17.5,7.8-17.5,17.5v16.5C-2684.8-382.9-2687-380.7-2689.8-380.7z"/>
	</g>
	<g>
		<path class="st6" d="M-1697.3-423.2v-5c0-2.8,2.2-5,5-5h16.5c17.9,0,32.5,14.6,32.5,32.5v15.5c0,2.8-2.2,5-5,5h-5
			c-2.8,0-5-2.2-5-5v-15.5c0-9.7-7.8-17.5-17.5-17.5h-16.5C-1695-418.2-1697.3-420.4-1697.3-423.2z"/>
	</g>
	<g>
		<path class="st7" d="M-1652.3,368.8h5c2.8,0,5,2.2,5,5v16.5c0,17.9-14.6,32.5-32.5,32.5h-15.5c-2.8,0-5-2.2-5-5v-5
			c0-2.8,2.2-5,5-5h15.5c9.7,0,17.5-7.8,17.5-17.5v-16.5C-1657.3,371-1655,368.8-1652.3,368.8z"/>
	</g>
	<g>
		<path class="st7" d="M-2644.8,411.3v5c0,2.8-2.2,5-5,5h-16.5c-17.9,0-32.5-14.6-32.5-32.5v-15.5c0-2.8,2.2-5,5-5h5
			c2.8,0,5,2.2,5,5v15.5c0,9.7,7.8,17.5,17.5,17.5h16.5C-2647,406.3-2644.8,408.5-2644.8,411.3z"/>
	</g>
	<g>
		<rect x="573.5" y="67.4" class="st3" width="6.5" height="7.7"/>
		<circle class="st3" cx="511.6" cy="81.7" r="65"/>
		<rect x="0.2" y="74.2" class="st3" width="1019.9" height="976.3"/>
		<g>
			<g>
				<path class="st8" d="M574.6,71c-1.2-1.7-2.9-2.9-4.8-3.6l-2.5-0.9l-0.6-2.6c-0.7-2.8-1.6-5.6-2.7-8.3c-1.1-2.6-2.4-5.2-3.9-7.7
					l-1.5-2.4l1.3-2.5c0.3-0.6,0.6-1.3,0.7-1.9c1.3-4.6-0.8-9.5-5.1-11.8c-1.5-0.8-3.2-1.2-4.9-1.2c-1.6,0-3.2,0.4-4.6,1.1l-2.5,1.2
					l-2.3-1.4c-2.4-1.5-5-2.8-7.6-3.9c-2.6-1.1-5.3-2-8.1-2.7l-2.7-0.7l-0.9-2.6c-1.2-3.5-4.1-6.1-7.6-6.8c-0.7-0.1-1.5-0.2-2.2-0.2
					c-4.5,0-8.5,2.8-9.9,7.1l-0.9,2.6l-2.7,0.7c-5.6,1.4-11,3.6-15.9,6.6l-2.4,1.5l-2.5-1.3c-1.5-0.8-3.2-1.2-4.8-1.2
					c-2.8,0-5.4,1.1-7.3,3c-1.9,2-3,4.7-3,7.5c0,1.7,0.4,3.3,1.2,4.7l1.3,2.5l-1.4,2.4c-2.9,4.8-5,9.9-6.3,15.3l-0.7,2.7l-2.7,0.8
					c-3.4,1-5.9,3.7-6.9,7h128.9C575.8,73,575.3,72,574.6,71z"/>
				<path class="st4" d="M454.1,67.2l2.7-0.8l0.7-2.7c1.3-5.4,3.5-10.5,6.3-15.3l1.4-2.4l-1.3-2.5c-0.8-1.5-1.2-3.1-1.2-4.7
					c0-2.8,1-5.5,3-7.5c1.9-1.9,4.5-3,7.3-3c1.7,0,3.3,0.4,4.8,1.2l2.5,1.3l2.4-1.5c4.9-3,10.3-5.2,15.9-6.6l2.7-0.7l0.9-2.6
					c1.4-4.2,5.4-7.1,9.9-7.1c0.7,0,1.5,0.1,2.2,0.2c3.5,0.7,6.4,3.4,7.6,6.8l0.9,2.6l2.7,0.7c2.8,0.7,5.5,1.6,8.1,2.7
					c2.7,1.1,5.2,2.4,7.6,3.9l2.3,1.4l2.5-1.2c1.4-0.7,3-1.1,4.6-1.1c1.7,0,3.4,0.4,4.9,1.2c4.3,2.3,6.4,7.1,5.1,11.8
					c-0.2,0.6-0.4,1.3-0.7,1.9l-1.3,2.5l1.5,2.4c1.5,2.5,2.8,5,3.9,7.7c1.1,2.7,2,5.4,2.7,8.3l0.6,2.6l2.5,0.9
					c1.9,0.7,8.1-0.2,9.3,1.5c0.7,1,1.9,4.2,2.2,5.3h4.8c-0.3-3.2-1.5-6.3-3.5-9v0c-1.9-2.6-4.2-4.6-7-6.1c-0.7-2.5-1.6-4.9-2.5-7.3
					c-1-2.3-2.1-4.6-3.3-6.8c0.1-0.4,0.2-0.8,0.4-1.1c2.6-9.2-1.6-18.8-10.1-23.3c-4.9-2.6-10.9-3.1-16-1.3
					c-2.2-1.2-4.4-2.3-6.8-3.3c-2.3-1-4.7-1.8-7.2-2.5c-2.8-5.5-7.9-9.6-14-10.8c-1.4-0.3-2.8-0.4-4.2-0.4
					c-7.9,0-14.9,4.4-18.3,11.3c-4.9,1.4-9.6,3.4-14,5.8c-2.2-0.7-4.4-1.1-6.7-1.1c-5.5,0-10.6,2.1-14.4,6c-3.8,3.8-6,9.2-5.9,14.6
					c0,2.3,0.4,4.5,1.2,6.6c-2.3,4.2-4.1,8.7-5.5,13.3c-6.1,2.9-10.5,8.8-11.5,15.5h10.2C448.1,70.9,450.7,68.2,454.1,67.2z"/>
			</g>
			<line class="st8" x1="440.3" y1="61.9" x2="453.1" y2="71"/>
			<g>
				<path class="st1" d="M480.2,24.9c5.4-3.3,11.2-5.7,17.3-7.2c0.3-1.1,0.8-2.1,1.4-3l-2.1-1.3l-2.2-1.3c-0.3,0.4-0.5,0.9-0.7,1.3
					c-4.9,1.4-9.6,3.4-14,5.8c-2.4-0.8-4.9-1.2-7.4-1.1l0.2,5c0.2,0,0.4,0,0.5,0C475.5,23.2,478,23.8,480.2,24.9z"/>
				<path class="st1" d="M571.4,62.7c2.9,1,5.3,2.9,7.2,5.4c0,0,0,0,0,0l4.1-2.9c-1.9-2.6-4.2-4.6-7-6.1c-0.7-2.5-1.6-4.9-2.5-7.3
					c-1.3-3.1-1.5-3.9-3.2-6.8l-5.6,0.4c1.6,2.7,3,5.4,4.2,8.3C569.7,56.6,570.6,59.6,571.4,62.7z"/>
				<path class="st1" d="M535.4,20.6c2.9,1.2,5.7,2.6,8.3,4.2c1.9-0.9,3.9-1.4,6-1.5l-0.3-5c-1.8,0.1-3.6,0.4-5.4,1
					c-2.2-1.2-4.4-2.3-6.8-3.3c-2.3-1-4.7-1.8-7.2-2.5c-0.6-1.2-1.3-2.2-2-3.3l-4,3c1,1.3,1.8,2.8,2.4,4.4
					C529.6,18.4,532.5,19.4,535.4,20.6z"/>
				<rect x="0.4" y="69.2" class="st1" width="0.4" height="2.6"/>
				<rect x="0.4" y="71.8" class="st1" width="0.4" height="2.6"/>
				<polygon class="st0" points="34.9,69.2 34.9,71.8 34.9,74.5 68.9,74.5 68.9,71.8 68.9,69.2 				"/>
				<polygon class="st1" points="68.9,69.2 68.9,71.8 68.9,74.5 103,74.5 103,71.8 103,69.2 				"/>
				<polygon class="st0" points="103,69.2 103,71.8 103,74.5 137,74.5 137,71.8 137,69.2 				"/>
				<polygon class="st1" points="137,69.2 137,71.8 137,74.5 171.1,74.5 171.1,71.8 171.1,69.2 				"/>
				<polygon class="st0" points="171.1,69.2 171.1,71.8 171.1,74.5 205.1,74.5 205.1,71.8 205.1,69.2 				"/>
				<polygon class="st1" points="205.1,69.2 205.1,71.8 205.1,74.5 239.2,74.5 239.2,71.8 239.2,69.2 				"/>
				<polygon class="st0" points="239.2,69.2 239.2,71.8 239.2,74.5 273.2,74.5 273.2,71.8 273.2,69.2 				"/>
				<polygon class="st1" points="273.2,69.2 273.2,71.8 273.2,74.5 307.3,74.5 307.3,71.8 307.3,69.2 				"/>
				<polygon class="st0" points="307.3,69.2 307.3,71.8 307.3,74.5 341.3,74.5 341.3,71.8 341.3,69.2 				"/>
				<polygon class="st1" points="341.3,69.2 341.3,71.8 341.3,74.5 375.4,74.5 375.4,71.8 375.4,69.2 				"/>
				<polygon class="st0" points="375.4,69.2 375.4,71.8 375.4,74.5 409.4,74.5 409.4,71.8 409.4,69.2 				"/>
				<path class="st1" d="M454,45.4c-2.9,4.9-4,7.8-5.6,13.3c-3.4,1.6-6.4,4.2-8.5,7.4l0,0c0,0-1,1.7-1.7,3.2h-28.8v2.6v2.6h32.5
					c0.2-0.9,0.4-1.8,0.7-2.6c0.2-0.7,0.5-1.3,0.9-2v-0.1c0.2-0.3,0.4-0.7,0.6-1l0.1,0c1.9-3,4.9-5.3,8.4-6.4
					c1.5-5.9,6.7-16.5,6.9-16.7L454,45.4z"/>
				<path class="st0" d="M579.7,69.2v0.7c0.3,0.6,0.6,1.3,0.9,2c0.2,0.5,0.4,1.1,0.5,1.6l4.9-1.2l0,0l-4.9,1.2
					c0.1,0.3,0.2,0.7,0.2,1h5.1l0,0h27.4v-2.6v-2.6H579.7z"/>
				<polygon class="st1" points="613.7,69.2 613.7,71.8 613.7,74.5 647.8,74.5 647.8,71.8 647.8,69.2 				"/>
				<polygon class="st0" points="647.8,69.2 647.8,71.8 647.8,74.5 681.8,74.5 681.8,71.8 681.8,69.2 				"/>
				<polygon class="st1" points="681.8,69.2 681.8,71.8 681.8,74.5 715.9,74.5 715.9,71.8 715.9,69.2 				"/>
				<polygon class="st0" points="715.9,69.2 715.9,71.8 715.9,74.5 749.9,74.5 749.9,71.8 749.9,69.2 				"/>
				<polygon class="st1" points="749.9,69.2 749.9,71.8 749.9,74.5 784,74.5 784,71.8 784,69.2 				"/>
				<polygon class="st0" points="784,69.2 784,71.8 784,74.5 818,74.5 818,71.8 818,69.2 				"/>
				<polygon class="st1" points="818,69.2 818,71.8 818,74.5 852.1,74.5 852.1,71.8 852.1,69.2 				"/>
				<polygon class="st0" points="852.1,69.2 852.1,71.8 852.1,74.5 886.1,74.5 886.1,71.8 886.1,69.2 				"/>
				<polygon class="st1" points="886.1,69.2 886.1,71.8 886.1,74.5 920.2,74.5 920.2,71.8 920.2,69.2 				"/>
				<polygon class="st0" points="920.2,69.2 920.2,71.8 920.2,74.5 954.2,74.5 954.2,71.8 954.2,69.2 				"/>
				<polygon class="st1" points="954.2,69.2 954.2,71.8 954.2,74.5 988.3,74.5 988.3,71.8 988.3,69.2 				"/>
				<polygon class="st0" points="988.3,69.2 988.3,71.8 988.3,74.5 1020.2,74.5 1020.2,71.8 1020.2,69.2 				"/>
				<rect x="988.3" y="1049.6" class="st1" width="31.9" height="2.6"/>
				<rect x="988.3" y="1047" class="st1" width="31.9" height="2.6"/>
				<rect x="954.2" y="1049.6" class="st0" width="34.1" height="2.6"/>
				<rect x="954.2" y="1047" class="st0" width="34.1" height="2.6"/>
				<rect x="920.2" y="1049.6" class="st1" width="34.1" height="2.6"/>
				<rect x="920.2" y="1047" class="st1" width="34.1" height="2.6"/>
				<rect x="886.1" y="1049.6" class="st0" width="34.1" height="2.6"/>
				<rect x="886.1" y="1047" class="st0" width="34.1" height="2.6"/>
				<rect x="852.1" y="1049.6" class="st1" width="34.1" height="2.6"/>
				<rect x="852.1" y="1047" class="st1" width="34.1" height="2.6"/>
				<rect x="818" y="1049.6" class="st0" width="34.1" height="2.6"/>
				<rect x="818" y="1047" class="st0" width="34.1" height="2.6"/>
				<rect x="784" y="1049.6" class="st1" width="34.1" height="2.6"/>
				<rect x="784" y="1047" class="st1" width="34.1" height="2.6"/>
				<rect x="749.9" y="1049.6" class="st0" width="34.1" height="2.6"/>
				<rect x="749.9" y="1047" class="st0" width="34.1" height="2.6"/>
				<rect x="715.9" y="1049.6" class="st1" width="34.1" height="2.6"/>
				<rect x="715.9" y="1047" class="st1" width="34.1" height="2.6"/>
				<rect x="681.8" y="1049.6" class="st0" width="34.1" height="2.6"/>
				<rect x="681.8" y="1047" class="st0" width="34.1" height="2.6"/>
				<rect x="647.8" y="1049.6" class="st1" width="34.1" height="2.6"/>
				<rect x="647.8" y="1047" class="st1" width="34.1" height="2.6"/>
				<rect x="613.7" y="1049.6" class="st0" width="34.1" height="2.6"/>
				<rect x="613.7" y="1047" class="st0" width="34.1" height="2.6"/>
				<rect x="579.7" y="1049.6" class="st1" width="34.1" height="2.6"/>
				<rect x="579.7" y="1047" class="st1" width="34.1" height="2.6"/>
				<rect x="545.6" y="1049.6" class="st0" width="34.1" height="2.6"/>
				<rect x="545.6" y="1047" class="st0" width="34.1" height="2.6"/>
				<rect x="511.6" y="1049.6" class="st1" width="34.1" height="2.6"/>
				<rect x="511.6" y="1047" class="st1" width="34.1" height="2.6"/>
				<rect x="477.5" y="1049.6" class="st0" width="34.1" height="2.6"/>
				<rect x="477.5" y="1047" class="st0" width="34.1" height="2.6"/>
				<rect x="443.5" y="1049.6" class="st1" width="34.1" height="2.6"/>
				<rect x="443.5" y="1047" class="st1" width="34.1" height="2.6"/>
				<rect x="409.4" y="1049.6" class="st0" width="34.1" height="2.6"/>
				<rect x="409.4" y="1047" class="st0" width="34.1" height="2.6"/>
				<rect x="375.4" y="1049.6" class="st1" width="34.1" height="2.6"/>
				<rect x="375.4" y="1047" class="st1" width="34.1" height="2.6"/>
				<rect x="341.3" y="1049.6" class="st0" width="34.1" height="2.6"/>
				<rect x="341.3" y="1047" class="st0" width="34.1" height="2.6"/>
				<rect x="307.3" y="1049.6" class="st1" width="34.1" height="2.6"/>
				<rect x="307.3" y="1047" class="st1" width="34.1" height="2.6"/>
				<rect x="273.2" y="1049.6" class="st0" width="34.1" height="2.6"/>
				<rect x="273.2" y="1047" class="st0" width="34.1" height="2.6"/>
				<rect x="239.2" y="1049.6" class="st1" width="34.1" height="2.6"/>
				<rect x="239.2" y="1047" class="st1" width="34.1" height="2.6"/>
				<rect x="205.1" y="1049.6" class="st0" width="34.1" height="2.6"/>
				<rect x="205.1" y="1047" class="st0" width="34.1" height="2.6"/>
				<rect x="171.1" y="1049.6" class="st1" width="34.1" height="2.6"/>
				<rect x="171.1" y="1047" class="st1" width="34.1" height="2.6"/>
				<rect x="137" y="1049.6" class="st0" width="34.1" height="2.6"/>
				<rect x="137" y="1047" class="st0" width="34.1" height="2.6"/>
				<rect x="103" y="1049.6" class="st1" width="34.1" height="2.6"/>
				<rect x="103" y="1047" class="st1" width="34.1" height="2.6"/>
				<polygon class="st0" points="68.9,1047 68.9,1049.6 68.9,1052.2 103,1052.2 103,1049.6 103,1047 				"/>
				<polygon class="st1" points="34.9,1047 34.9,1049.6 34.9,1052.2 68.9,1052.2 68.9,1049.6 68.9,1047 				"/>
				<rect x="0.8" y="1049.6" class="st0" width="34.1" height="2.6"/>
				<rect x="0.8" y="1047" class="st0" width="34.1" height="2.6"/>
				<rect x="0.4" y="1049.6" class="st0" width="0.4" height="2.6"/>
				<rect x="0.4" y="1047" class="st0" width="0.4" height="2.6"/>
				<path class="st1" d="M568.5,74.5c-0.6-0.6-1.5-0.9-2.5-0.9c-0.6,0-1.2,0-1.8,0c-1,0-2,0-3,0c0-0.6-0.1-1.1-0.2-1.7
					c-0.1-0.9-0.2-1.8-0.4-2.6c-0.6-3.8-1.6-7.5-3.1-11c-2-4.9-4.8-9.4-8.3-13.5c1.2-1.2,2.5-2.4,3.6-3.6c0.5-0.5,0.9-1.2,1.1-1.8
					c0.4-1.6-0.3-3.2-1.7-3.9c-0.5-0.3-1.1-0.4-1.7-0.4c-0.9,0-1.9,0.4-2.6,1.1c-1.2,1.2-2.5,2.4-3.8,3.7c-3.9-3.5-8.4-6.2-13.4-8.3
					c-4.9-2-10-3.2-15.3-3.6c0-1.9,0-3.6,0-5.3c0-1.7-1.2-3.1-2.7-3.4c-0.3-0.1-0.5-0.1-0.8-0.1c-1.9,0-3.5,1.5-3.5,3.6
					c0,1.7,0,3.5,0,5.3c-11,0.9-20.6,4.9-28.9,12.1c-1.3-1.3-2.6-2.6-3.9-3.9c-0.7-0.7-1.7-1.1-2.6-1.1c-0.9,0-1.8,0.3-2.5,1
					c-1.4,1.4-1.3,3.7,0.1,5.1c0.5,0.5,0.9,0.9,1.4,1.4c0.9,0.8,1.7,1.6,2.6,2.5c-6.7,7.9-10.5,16.9-11.7,26.9
					c-0.1,0.6-0.1,1.1-0.2,1.7c-1.2,0-2.4,0-3.5,0c-0.7,0-1.4,0-2.2,0c-2,0-3.5,1.6-3.5,3.5c0,2,1.5,3.5,3.5,3.5c0.7,0,1.5,0,2.2,0
					c1.1,0,2.3,0,3.5,0c0.9,10.9,4.8,20.5,11.9,28.7c-1.3,1.3-2.5,2.5-3.7,3.8c-1.5,1.5-1.5,3.7,0,5.1c0.6,0.6,1.5,1,2.4,1
					c0.9,0,1.9-0.4,2.6-1.1c1.2-1.2,2.4-2.5,3.6-3.8c8.4,7.2,18,11.1,28.7,12c0,0.1,0.1,0.2,0.1,0.2c0,1.7,0,3.3,0,5
					c0,2.1,1.5,3.6,3.5,3.6c0,0,0,0,0,0c2.1,0,3.5-1.5,3.5-3.6c0-1.4,0-2.8,0-4.2c0-0.7,0.2-1,0.9-1.1c4.1-0.3,8-1.2,11.8-2.6
					c4.7-1.6,9.1-4,13.1-6.9c0.9-0.7,1.8-1.4,2.8-2.2c1.2,1.2,2.4,2.4,3.5,3.6c0.7,0.7,1.6,1,2.6,1c0.9,0,1.9-0.3,2.5-1
					c1.3-1.4,1.2-3.7-0.2-5.1c-1.2-1.1-2.3-2.3-3.5-3.4c7.2-8.4,11.3-18,12.1-28.9c0.1,0,0.1-0.1,0.2-0.1c1.6,0,3.1,0,4.7,0
					c1.6,0,2.9-0.9,3.4-2.3C569.9,76.8,569.5,75.4,568.5,74.5z M515.5,39.3c0.2,0,0.4,0,0.6,0c5.2,0,15.8,4.4,20.1,8.6
					c-1,0.9-1.9,1.8-2.9,2.8c-4.7,4.6-9.3,9.3-13.9,13.9c-0.2,0.2-0.3,0.3-0.5,0.3c-0.1,0-0.2,0-0.4-0.1c-0.8-0.4-1.7-0.7-2.5-1.2
					c-0.2-0.1-0.5-0.4-0.5-0.7c0-7.8,0-15.6,0-23.4C515.5,39.5,515.5,39.4,515.5,39.3z M508.3,39.2c0,8.1,0,16,0,23.9
					c-1.3,0.5-2.5,1.1-3.7,1.6c0,0-0.1,0-0.1,0c-0.2,0-0.4-0.1-0.5-0.2c-3-2.9-5.9-5.9-8.8-8.8c-2.4-2.4-4.7-4.7-7.1-7
					c-0.2-0.2-0.5-0.4-0.8-0.7C493.6,42.9,500.5,40,508.3,39.2z M474.3,71.8c1-7,3.7-13.3,8.2-18.9c1.3,1.3,2.6,2.6,3.8,3.9
					c3.1,3.1,6.2,6.2,9.4,9.4c1,1,2,2,3,3c0.1,0.1,0.2,0.2,0.3,0.3c0.1,0.2,0.2,0.5,0.1,0.8c-0.2,0.5-0.4,1-0.6,1.5
					c-0.1,0.3-0.3,0.7-0.4,1c-0.2,0.5-0.4,0.7-1,0.7c0,0,0,0,0,0c-2.9,0-5.7,0-8.6,0c-2.2,0-4.4,0-6.6,0c-0.1,0-0.1,0-0.2,0
					c-0.8,0-1.7,0-2.5,0c-0.6,0-1.1,0-1.7,0c-1.1,0-2.3,0-3.5,0C474.1,73,474.2,72.4,474.3,71.8z M474.1,80.7c7.9,0,15.8,0,23.7,0
					c0.6,1.3,1.1,2.6,1.7,3.9c-5.6,5.6-11.2,11.1-16.8,16.8C477.7,95.3,474.8,88.5,474.1,80.7z M508.4,113.8c0,0.3,0,0.7,0,1.1
					c-5.4-0.3-13.7-2.7-20.7-8.5c0.9-0.9,1.7-1.8,2.6-2.7c4.3-4.3,8.5-8.5,12.8-12.8c0.5-0.5,0.9-1.2,1.4-1.3c0.1,0,0.1,0,0.2,0
					c0.5,0,1,0.4,1.6,0.6c0.3,0.1,0.6,0.3,0.9,0.3c1.1,0.1,1.2,0.7,1.2,1.7C508.4,99.4,508.4,106.6,508.4,113.8z M511.6,85.4
					C511.6,85.4,511.6,85.4,511.6,85.4c-4.6,0-8.5-3.9-8.4-8.4c0-0.9,0.2-1.7,0.4-2.6c0.3-1,0.8-1.8,1.5-2.6c1-1.2,2.2-2.1,3.7-2.6
					c0.9-0.3,1.8-0.5,2.8-0.5c0,0,0,0,0,0c1,0,1.9,0.2,2.7,0.5l0,0c1.5,0.5,2.7,1.4,3.7,2.6l0,0c0.6,0.8,1.1,1.7,1.5,2.6
					c0.3,0.8,0.4,1.7,0.4,2.6C519.9,81.6,516.1,85.4,511.6,85.4z M515.5,115c0-0.4,0-0.6,0-0.9c0-7.5,0-15,0-22.5
					c0-0.7,0.2-1,0.9-1.2c0.7-0.2,1.3-0.6,2-0.8c0.1,0,0.2,0,0.3,0c0.2,0,0.4,0.1,0.5,0.2c4.5,4.5,8.9,8.9,13.4,13.4
					c1.1,1.1,2.3,2.3,3.5,3.5C529.9,111.4,523.2,114.2,515.5,115z M541.1,101.5c-0.6-0.6-1.2-1.1-1.8-1.7c-3.1-3.1-6.2-6.2-9.2-9.3
					c-2-2-3.9-3.9-5.9-5.9c-0.3-0.3-0.4-0.6-0.2-1c0.4-0.8,0.7-1.6,1-2.4c0.2-0.6,0.4-0.8,1-0.8c0,0,0,0,0,0c3.2,0,6.4,0,9.6,0
					c2.7,0,5.4,0,8,0c0.7,0,1.3,0,2,0c1.3,0,2.7,0,4.1,0C549,88.5,546.1,95.4,541.1,101.5z M545.6,73.5v1V73.5c-6.8,0-13.5,0-20.3,0
					c-0.2-0.6-0.5-1.1-0.7-1.7l0,0c-0.2-0.5-0.4-0.9-0.6-1.4c-0.1-0.2,0.1-0.6,0.3-0.8c0.1-0.1,0.3-0.3,0.4-0.4l0,0
					c2.8-2.8,5.6-5.7,8.5-8.5c2.6-2.6,5.2-5.2,7.9-7.9c4,4.9,6.6,10.4,7.9,16.4c0.2,0.9,0.3,1.7,0.5,2.6c0.1,0.6,0.2,1.1,0.2,1.7
					C548.4,73.5,547,73.5,545.6,73.5z"/>
				<path class="st1" d="M545.6,74.5v-1c0,0,0,0-0.1,0L545.6,74.5z"/>
				<path class="st3" d="M521.4,46.4c0,2.6,0,5.3,0,7.9c1.8-1.8,3.7-3.7,5.5-5.5C525.1,47.8,523.2,47,521.4,46.4z"/>
				<path class="st3" d="M502.4,46.4c-2,0.6-3.9,1.4-5.7,2.4c0.9,0.9,5.3,5.3,5.7,5.7V46.4z"/>
				<path class="st3" d="M579.3,69.2c-0.2-0.4-0.5-0.8-0.7-1.1l-1.6,1.1H579.3z"/>
				<path class="st3" d="M483.4,62.3c-0.9,1.7-1.6,3.5-2.2,5.3c0,0,7.4,0,7.5,0L483.4,62.3z"/>
				<path class="st3" d="M579.7,71.8v-2c-0.1-0.2-0.2-0.3-0.3-0.5l0.1,2.5H579.7z"/>
				<path class="st3" d="M534.8,67.6h7.8c-0.6-1.9-1.4-3.8-2.3-5.5C540.3,62.1,535.7,66.7,534.8,67.6z"/>
				<path class="st3" d="M502.5,107.8c0-2.6,0-5.2,0-7.9l-5.6,5.6C498.8,106.5,500.7,107.2,502.5,107.8z"/>
				<path class="st3" d="M483.5,92.1l5.5-5.5h-7.7C481.8,88.5,482.6,90.3,483.5,92.1z"/>
				<polygon class="st3" points="579.7,73.8 579.7,71.8 579.5,71.8 579.6,73.8 				"/>
				<path class="st3" d="M521.4,107.8c1.8-0.6,3.6-1.3,5.3-2.2c0,0-3.7-3.7-5.3-5.3C521.4,102.8,521.4,105.3,521.4,107.8z"/>
				<path class="st3" d="M540.2,92.3c1-1.9,1.8-3.8,2.4-5.8c0,0-7.8,0-8.2,0L540.2,92.3z"/>
				<polygon class="st3" points="579.6,73.8 579.7,74.5 579.7,73.8 				"/>
				<path class="st3" d="M578.6,68.1c-1.8-2.5-4.3-4.4-7.2-5.4c-0.7-3.1-1.7-6.1-2.9-9c-1.2-2.9-2.6-5.6-4.2-8.3c0,0,0,0,0,0
					c0.4-0.9,0.8-1.8,1.1-2.8c1.9-6.9-1.2-14.1-7.6-17.5c-2.2-1.2-4.7-1.8-7.2-1.8c-0.3,0-0.5,0-0.8,0c-2.1,0.1-4.2,0.6-6,1.5
					c-2.6-1.6-5.4-3-8.3-4.2c-2.9-1.2-5.8-2.2-8.9-2.9c-0.5-1.6-1.4-3.1-2.4-4.4c-2.2-2.8-5.3-4.9-9-5.7c-1-0.2-2.1-0.3-3.2-0.3
					c-5.7,0-10.6,3-13.2,7.5c-0.6,0.9-1,1.9-1.4,3c-6.1,1.5-11.9,3.9-17.3,7.2c-2.2-1.1-4.6-1.7-7.1-1.7c-0.2,0-0.4,0-0.5,0
					c-3.9,0.1-7.6,1.7-10.3,4.5c-2.9,2.9-4.5,6.9-4.4,11.1c0,2.2,0.6,4.3,1.5,6.3c0.1,0.2,0.2,0.5,0.3,0.7
					c-3.1,5.2-5.4,10.8-6.9,16.7c-3.5,1.1-6.5,3.4-8.4,6.4c-0.2,0.3-0.4,0.7-0.6,1.1v0c-0.3,0.6-0.6,1.3-0.9,2
					c-0.3,0.8-0.5,1.7-0.7,2.6h7.2v-2.6h0c1.7-2.5,4.5-4.2,7.8-4.2c0.2,0,0.3,0,0.5,0c1.4-8,4.5-15.4,9.1-22.1l-0.2-0.2
					c-1.8-1.8-2.8-4.1-2.8-6.7c0-2.5,0.9-5,2.7-6.8c1.8-1.8,4.1-2.7,6.7-2.7s5,1,6.8,2.8l0.2,0.2c6.8-4.8,14.3-8,22.5-9.4
					c0-0.1,0-0.1,0-0.2c0.1-5.3,4.2-9.4,9.5-9.4c0.7,0,1.3,0.1,2,0.2c4.2,0.9,7.4,4.7,7.4,9.1c0,0.1,0,0.1,0,0.2
					c4.1,0.7,8,1.8,11.7,3.4c3.8,1.6,7.4,3.6,10.7,5.9c0,0,0,0,0,0c1.8-1.8,4.2-2.8,6.8-2.8c1.5,0,3.1,0.4,4.4,1.1
					c3.9,2.1,5.8,6.5,4.7,10.7c-0.5,1.9-1.6,3.4-2.5,4.3c0,0,0,0-0.1,0.1c2.4,3.4,4.4,7,5.9,10.7c1.6,3.7,2.7,7.7,3.4,11.7
					c1.8,0.1,3.5,0.6,4.9,1.6h1.5h4.1L578.6,68.1C578.6,68.1,578.6,68.1,578.6,68.1z"/>
				<path class="st3" d="M574.5,71l2.5-1.8h-4.1C573.5,69.7,574,70.3,574.5,71z"/>
				<path class="st3" d="M579.5,71.8H574c0.5,0.8,1,1.7,1.2,2.6h1.6l2.9-0.7L579.5,71.8z"/>
				<polygon class="st3" points="576.8,74.5 579.7,74.5 579.6,73.8 				"/>
				<path class="st3" d="M580.5,71.8c-0.2-0.7-0.5-1.3-0.9-2v2H580.5z"/>
				<path class="st3" d="M579.7,73.8l1.3-0.3c-0.1-0.5-0.3-1.1-0.5-1.6h-0.9V73.8z"/>
				<path class="st3" d="M579.7,74.5h1.6c-0.1-0.3-0.1-0.7-0.2-1l-1.3,0.3V74.5z"/>
				<path class="st3" d="M477.5,69.2h21.2c-1-1-2-2-3-3c-3.1-3.1-6.2-6.2-9.4-9.4c-1.3-1.3-2.5-2.6-3.8-3.9
					c-4.5,5.6-7.2,11.8-8.2,18.9h3.2V69.2z M483.4,62.3l5.3,5.3c-0.1,0-7.5,0-7.5,0C481.8,65.8,482.5,64,483.4,62.3z"/>
				<path class="st3" d="M474.5,44.9c-0.9-0.8-1.7-1.6-2.6-2.5c-0.5-0.4-0.9-0.9-1.4-1.4c-1.4-1.4-1.4-3.7-0.1-5.1
					c0.7-0.7,1.6-1,2.5-1c0.9,0,1.9,0.4,2.6,1.1c1.3,1.3,2.6,2.6,3.9,3.9c8.3-7.2,18-11.2,28.9-12.1c0-1.8,0-3.5,0-5.3
					c0-2.1,1.6-3.6,3.5-3.6c0.3,0,0.5,0,0.8,0.1c1.5,0.3,2.7,1.7,2.7,3.4c0,1.7,0,3.5,0,5.3c5.3,0.4,10.4,1.6,15.3,3.6
					c4.9,2,9.4,4.8,13.4,8.3c1.3-1.3,2.5-2.5,3.8-3.7c0.7-0.7,1.7-1.1,2.6-1.1c0.6,0,1.1,0.1,1.7,0.4c1.4,0.7,2.2,2.3,1.7,3.9
					c-0.2,0.7-0.6,1.3-1.1,1.8c-1.1,1.2-2.4,2.4-3.6,3.6c3.5,4.1,6.3,8.5,8.3,13.5c1.5,3.6,2.5,7.2,3.1,11h10.7
					c-1.4-0.9-3.1-1.5-4.9-1.6c-0.7-4-1.8-8-3.4-11.7c-1.5-3.7-3.5-7.3-5.9-10.7c0,0,0,0,0.1-0.1c0.8-0.9,1.9-2.4,2.5-4.3
					c1.2-4.2-0.7-8.6-4.7-10.7c-1.4-0.7-2.9-1.1-4.4-1.1c-2.5,0-4.9,1-6.8,2.8c0,0,0,0,0,0c-3.3-2.3-6.8-4.3-10.7-5.9
					c-3.7-1.5-7.6-2.7-11.7-3.4c0-0.1,0-0.1,0-0.2c-0.1-4.4-3.2-8.2-7.4-9.1c-0.7-0.1-1.3-0.2-2-0.2c-5.2,0-9.4,4.1-9.5,9.4
					c0,0.1,0,0.1,0,0.2c-8.2,1.4-15.8,4.6-22.5,9.4l-0.2-0.2c-1.8-1.8-4.3-2.8-6.8-2.8s-4.9,1-6.7,2.7c-1.8,1.8-2.8,4.3-2.7,6.8
					c0,2.5,1,4.9,2.8,6.7l0.2,0.2c-4.7,6.7-7.7,14.1-9.1,22.1c-0.2,0-0.3,0-0.5,0c-3.3,0-6.2,1.7-7.8,4.2h13.7
					C464,61.8,467.8,52.8,474.5,44.9z"/>
				<path class="st3" d="M516,63.6c0.8,0.4,1.7,0.7,2.5,1.2c0.1,0.1,0.3,0.1,0.4,0.1c0.2,0,0.4-0.1,0.5-0.3
					c4.6-4.7,9.3-9.3,13.9-13.9c0.9-0.9,1.9-1.9,2.9-2.8c-4.3-4.2-14.9-8.6-20.1-8.6c-0.2,0-0.4,0-0.6,0c0,0.1-0.1,0.2-0.1,0.3
					c0,7.8,0,15.6,0,23.4C515.5,63.2,515.8,63.5,516,63.6z M521.4,46.4c1.8,0.6,3.7,1.4,5.5,2.3c-1.8,1.8-3.7,3.7-5.5,5.5
					C521.4,51.6,521.4,49,521.4,46.4z"/>
				<path class="st3" d="M533.3,60.7c-2.8,2.8-5.7,5.7-8.5,8.5h20.5h0.3h3.5c-1.3-6-3.9-11.5-7.9-16.4
					C538.5,55.5,535.9,58.1,533.3,60.7z M534.8,67.6c0.9-0.9,5.5-5.5,5.5-5.5c0.9,1.8,1.7,3.6,2.3,5.5H534.8z"/>
				<path class="st3" d="M495.2,55.8c2.9,2.9,5.9,5.9,8.8,8.8c0.1,0.1,0.3,0.2,0.5,0.2c0,0,0.1,0,0.1,0c1.2-0.5,2.4-1,3.7-1.6
					c0-7.9,0-15.9,0-23.9c-7.9,0.8-14.8,3.7-21,8.8c0.3,0.3,0.6,0.5,0.8,0.7C490.5,51.1,492.9,53.4,495.2,55.8z M502.4,46.4v8.2
					c-0.4-0.4-4.8-4.8-5.7-5.7C498.5,47.8,500.4,47,502.4,46.4z"/>
				<path class="st3" d="M514.3,69.2c-0.9-0.3-1.8-0.5-2.7-0.5c0,0,0,0,0,0c-1,0-1.9,0.2-2.8,0.5h2.8H514.3z"/>
				<path class="st3" d="M535.7,80.6c-3.2,0-6.4,0-9.6,0c0,0,0,0,0,0c-0.6,0-0.8,0.2-1,0.8c-0.3,0.8-0.6,1.6-1,2.4
					c-0.2,0.4-0.2,0.6,0.2,1c2,1.9,3.9,3.9,5.9,5.9c3.1,3.1,6.2,6.2,9.2,9.3c0.6,0.6,1.1,1.1,1.8,1.7c5.1-6.1,8-13,8.8-20.9
					c-1.4,0-2.8,0-4.1,0c-0.7,0-1.3,0-2,0C541,80.6,538.4,80.6,535.7,80.6z M540.2,92.3l-5.8-5.8c0.5,0,8.2,0,8.2,0
					C542,88.5,541.2,90.5,540.2,92.3z"/>
				<path class="st3" d="M503.6,74.5c-0.3,0.8-0.4,1.7-0.4,2.6c0,4.6,3.8,8.4,8.4,8.4c0,0,0,0,0,0c4.5,0,8.3-3.8,8.3-8.3
					c0-0.9-0.2-1.8-0.4-2.6h-7.9H503.6z"/>
				<path class="st3" d="M507.2,90.5c-0.3,0-0.6-0.2-0.9-0.3c-0.5-0.2-1.1-0.6-1.6-0.6c-0.1,0-0.1,0-0.2,0c-0.5,0.1-0.9,0.8-1.4,1.3
					c-4.3,4.3-8.6,8.5-12.8,12.8c-0.9,0.9-1.7,1.8-2.6,2.7c7,5.9,15.3,8.2,20.7,8.5c0-0.4,0-0.7,0-1.1c0-7.2,0-14.4,0-21.6
					C508.4,91.2,508.3,90.6,507.2,90.5z M502.5,107.8c-1.8-0.6-3.7-1.3-5.6-2.3l5.6-5.6C502.5,102.5,502.5,105.2,502.5,107.8z"/>
				<path class="st3" d="M474.3,71.8c-0.1,0.6-0.2,1.1-0.2,1.7c1.2,0,2.3,0,3.5,0v-1.7H474.3z"/>
				<path class="st3" d="M497.8,80.7c-7.9,0-15.8,0-23.7,0c0.8,7.8,3.7,14.7,8.6,20.7c5.6-5.6,11.2-11.2,16.8-16.8
					C498.9,83.3,498.3,82,497.8,80.7z M483.5,92.1c-0.9-1.8-1.7-3.6-2.3-5.5h7.7L483.5,92.1z"/>
				<path class="st3" d="M519.1,89.7c-0.1-0.1-0.3-0.2-0.5-0.2c-0.1,0-0.2,0-0.3,0c-0.7,0.2-1.3,0.6-2,0.8c-0.6,0.2-0.9,0.5-0.9,1.2
					c0,7.5,0,15,0,22.5c0,0.3,0,0.5,0,0.9c7.7-0.8,14.5-3.6,20.5-8.4c-1.2-1.2-2.3-2.3-3.5-3.5C528.1,98.6,523.6,94.1,519.1,89.7z
					 M521.4,107.8c0-2.5,0-5,0-7.5c1.7,1.7,5.3,5.3,5.3,5.3C525,106.5,523.2,107.2,521.4,107.8z"/>
				<path class="st3" d="M477.5,71.8h21c0.2-0.5,0.4-1,0.6-1.5c0.1-0.2,0-0.6-0.1-0.8c-0.1-0.1-0.2-0.2-0.3-0.3h-21.2V71.8z"/>
				<path class="st3" d="M505.1,71.8h6.5v-2.6h-2.8C507.3,69.7,506.1,70.7,505.1,71.8z"/>
				<path class="st3" d="M511.6,71.8h-6.5c-0.6,0.8-1.1,1.7-1.5,2.6h7.9V71.8z"/>
				<path class="st3" d="M481.7,73.6c0.1,0,0.1,0,0.2,0c2.2,0,4.4,0,6.6,0c2.9,0,5.7,0,8.6,0c0,0,0,0,0,0c0.6,0,0.8-0.2,1-0.7
					c0.1-0.3,0.3-0.7,0.4-1h-21v1.7c0.6,0,1.1,0,1.7,0C480.1,73.6,480.9,73.6,481.7,73.6z"/>
				<path class="st3" d="M524.1,70.4c0.2,0.5,0.4,0.9,0.6,1.4h20.8l-0.2-2.6h-20.5c-0.1,0.1-0.3,0.3-0.4,0.4
					C524.2,69.8,524,70.2,524.1,70.4z"/>
				<path class="st3" d="M511.6,71.8h6.5c-1-1.2-2.2-2.1-3.7-2.6h-2.8V71.8z"/>
				<path class="st3" d="M525.4,73.5c6.7,0,13.5,0,20.2,0l-0.1-1.7h-20.8C524.9,72.4,525.1,72.9,525.4,73.5z"/>
				<path class="st3" d="M511.6,71.8v2.6h7.9c-0.3-1-0.8-1.8-1.5-2.6H511.6z"/>
				<path class="st3" d="M561,71.8h13c-0.1-0.1-0.1-0.2-0.2-0.3c-0.7-0.9-1.5-1.7-2.4-2.3h-10.7C560.8,70.1,560.9,71,561,71.8z"/>
				<path class="st3" d="M545.6,71.8h4c-0.1-0.9-0.3-1.8-0.5-2.6h-3.5V71.8z"/>
				<path class="st3" d="M561,71.8c0.1,0.6,0.1,1.1,0.2,1.7c1,0,2,0,3,0c0.6,0,1.2,0,1.8,0c1,0,1.8,0.4,2.5,0.9h6.7
					c-0.3-0.9-0.7-1.8-1.2-2.6H561z"/>
				<path class="st3" d="M545.6,73.5c1.4,0,2.8,0,4.2,0c-0.1-0.6-0.2-1.1-0.2-1.7h-4V73.5z"/>
				<polygon class="st3" points="545.6,71.8 545.6,69.2 545.3,69.2 545.5,71.8 				"/>
				<path class="st3" d="M545.5,71.8l0.1,1.7c0,0,0,0,0.1,0v-1.7H545.5z"/>
				<g>
					<polygon class="st1" points="0.8,69.2 0.8,71.8 0.8,74.5 34.9,74.5 34.9,71.8 34.9,69.2 					"/>
					<polygon class="st1" points="0.2,71.8 0.2,74.5 0.4,74.5 0.4,71.8 0.4,69.2 0.2,69.2 					"/>
				</g>
				<rect x="0.2" y="1049.6" class="st0" width="0.3" height="2.6"/>
				<rect x="0.2" y="1047" class="st0" width="0.3" height="2.6"/>
			</g>
		</g>
	</g>
</g>
</svg>
