<svg width="63" height="84" viewBox="0 0 63 84" fill="none" xmlns="http://www.w3.org/2000/svg">
<g clip-path="url(#clip0_1480_1163)">
<path d="M36.6551 4.8289L32.0112 2.15063V7.50716L36.6551 4.8289Z" fill="#0389FF"/>
<path d="M33.0705 14.6087H29.4043L30.1783 1.01449C30.219 0.446377 30.6671 0 31.2374 0C31.8077 0 32.2558 0.446377 32.2965 1.01449L33.0705 14.6087Z" fill="#172965"/>
<path d="M44.0694 21.913H18.4058V16.9217C18.4058 15.6637 19.4242 14.6086 20.7277 14.6086H41.7882C43.051 14.6086 44.1101 15.6231 44.1101 16.9217V21.913H44.0694Z" fill="#0389FF"/>
<path d="M40.4029 21.913H14.7393V16.9217C14.7393 15.6637 15.7577 14.6086 17.0612 14.6086H38.1217C39.3845 14.6086 40.4436 15.6231 40.4436 16.9217V21.913H40.4029Z" fill="#172965"/>
<path d="M54.579 54.7827H7.56982L11.2361 24.1855C11.399 22.887 12.4581 21.9131 13.6802 21.9131H48.5094C49.7722 21.9131 50.7906 22.887 50.9535 24.1855L54.579 54.7827Z" fill="#0389FF"/>
<path d="M46.7577 54.7827H7.56982L11.2361 24.1855C11.399 22.887 12.4581 21.9131 13.6802 21.9131H44.1506L46.7577 54.7827Z" fill="#172965"/>
<path d="M44.0692 64.5217C45.419 64.5217 46.5133 63.4316 46.5133 62.0869C46.5133 60.7422 45.419 59.6521 44.0692 59.6521C42.7193 59.6521 41.625 60.7422 41.625 62.0869C41.625 63.4316 42.7193 64.5217 44.0692 64.5217Z" fill="#0389FF"/>
<path d="M17.0612 36.5217H45.4541C46.7169 36.5217 47.7761 35.5072 47.7761 34.2086V31.4898C47.7761 30.2318 46.7577 29.1768 45.4541 29.1768H17.0612C15.7984 29.1768 14.7393 30.1912 14.7393 31.4898V34.2086C14.7393 35.5072 15.7577 36.5217 17.0612 36.5217Z" fill="#0389FF"/>
<path d="M25.738 29.2173H22.0718V36.5216H25.738V29.2173Z" fill="#172965"/>
<path d="M40.4026 29.2173H36.7363V36.5216H40.4026V29.2173Z" fill="#172965"/>
<path d="M1.29627 52.713C0.359344 53.2406 -0.129487 54.2551 0.155664 55.229L7.1215 82.2551C7.40665 83.2696 8.38431 84 9.52492 84H31.0742V36.5217L1.29627 52.713Z" fill="#172965"/>
<path d="M60.8521 52.713L31.0742 36.5217V84H52.6235C53.7641 84 54.7418 83.2696 55.0269 82.2551L61.9927 55.229C62.2372 54.2551 61.7891 53.2 60.8521 52.713Z" fill="#0389FF"/>
<path d="M21.0939 63.9131C21.0939 66.3884 19.0572 68.4174 16.5723 68.4174V73.0435C21.6235 73.0435 25.7378 68.945 25.7378 63.9131H21.0939Z" fill="#0389FF"/>
<path d="M12.0506 63.9131H7.40674C7.40674 68.945 11.5211 73.0435 16.5723 73.0435V68.4174C14.0874 68.4174 12.0506 66.3884 12.0506 63.9131Z" fill="white"/>
<path d="M21.0939 63.9131H25.7378C25.7378 58.8813 21.6235 54.7827 16.5723 54.7827V59.4088C19.0572 59.4088 21.0939 61.4378 21.0939 63.9131Z" fill="white"/>
<path d="M12.0506 63.9131C12.0506 61.4378 14.0874 59.4088 16.5723 59.4088V54.7827C11.5211 54.7827 7.40674 58.8813 7.40674 63.9131H12.0506Z" fill="#0389FF"/>
</g>
<defs>
<clipPath id="clip0_1480_1163">
<rect width="62" height="84" fill="white" transform="translate(0.0742188)"/>
</clipPath>
</defs>
</svg>
