<svg width="16" height="15" viewBox="0 0 16 15" fill="none" xmlns="http://www.w3.org/2000/svg">
<path d="M7.10621 0.781224C7.4752 0.0458751 8.5248 0.045875 8.89379 0.781224L10.3472 3.67773C10.4881 3.95857 10.7529 4.15685 11.062 4.21309L14.209 4.78562C14.9851 4.92681 15.2998 5.86898 14.7644 6.44825L12.4804 8.91919C12.2775 9.13866 12.1835 9.43736 12.224 9.73347L12.6833 13.0916C12.793 13.8942 11.9528 14.4874 11.2332 14.1154L8.45926 12.6812C8.1712 12.5323 7.8288 12.5323 7.54074 12.6812L4.76679 14.1154C4.04717 14.4874 3.20697 13.8942 3.31675 13.0916L3.77604 9.73347C3.81654 9.43736 3.72247 9.13866 3.51961 8.91919L1.23564 6.44825C0.700206 5.86898 1.01491 4.92681 1.79099 4.78562L4.938 4.21309C5.24714 4.15685 5.51187 3.95857 5.65279 3.67773L7.10621 0.781224Z" fill="white"/>
</svg>
