<?xml version="1.0" encoding="utf-8"?>
<!-- Generator: Adobe Illustrator 26.0.1, SVG Export Plug-In . SVG Version: 6.00 Build 0)  -->
<svg version="1.1" id="레이어_1" xmlns="http://www.w3.org/2000/svg" xmlns:xlink="http://www.w3.org/1999/xlink" x="0px"
	 y="0px" viewBox="0 0 1920 316.8" style="enable-background:new 0 0 1920 316.8;" xml:space="preserve">
<style type="text/css">
	.st0{fill:#172965;}
	.st1{fill:#F3F3F3;}
</style>
<g>
	<path class="st0" d="M4371.6-21.5c-239.9,0-239.9,85.5-479.9,85.5c-239.9,0-239.9-85.5-479.9-85.5C3171.9-21.5,3171.9,64,2932,64
		s-239.9-85.5-479.9-85.5v338.3h1920V-21.5C4372-21.5,4371.8-21.5,4371.6-21.5z"/>
</g>
<g id="레이어_2">
</g>
<g>
	<path class="st1" d="M1458.2,0c-238.9,0-238.9,77.3-477.8,77.3C741.5,77.3,741.5,0,502.7,0C263.8,0,263.8,77.3,24.9,77.3
		C16.3,77.3,8,77.2,0,77v239.8h1920V77.2C1697,73.8,1691.6,0,1458.2,0z"/>
</g>
</svg>
