<?xml version="1.0" encoding="utf-8"?>
<!-- Generator: Adobe Illustrator 26.0.1, SVG Export Plug-In . SVG Version: 6.00 Build 0)  -->
<svg version="1.1" id="레이어_1" xmlns="http://www.w3.org/2000/svg" xmlns:xlink="http://www.w3.org/1999/xlink" x="0px"
	 y="0px" viewBox="0 0 1920 338.3" style="enable-background:new 0 0 1920 338.3;" xml:space="preserve">
<style type="text/css">
	.st0{fill:#172965;}
	.st1{fill:#0389FF;}
</style>
<g>
	<path class="st0" d="M1919.5,0c-239.9,0-239.9,85.5-479.9,85.5C1199.7,85.5,1199.7,0,959.8,0C719.8,0,719.8,85.5,479.9,85.5
		S239.9,0,0,0v338.3h1920V0C1919.8,0,1919.7,0,1919.5,0z"/>
</g>
<g id="레이어_2">
</g>
<g>
	<path class="st1" d="M-993.9,21.5c-238.9,0-238.9,77.3-477.8,77.3c-238.9,0-238.9-77.3-477.8-77.3c-238.9,0-238.9,77.3-477.8,77.3
		c-8.6,0-16.9-0.1-24.9-0.3v239.8h1920V98.7C-755.1,95.3-760.5,21.5-993.9,21.5z"/>
</g>
</svg>
